<svg width="820" height="4575" viewBox="0 0 820 4575" fill="none" xmlns="http://www.w3.org/2000/svg">
<g opacity="0.7" filter="url(#filter0_f_168_173)">
<path d="M10 794.381L4 794.381L4 794.507L4.00534 794.634L10 794.381ZM139.148 1028.87L137.841 1034.72L138.089 1034.78L138.341 1034.81L139.148 1028.87ZM425.797 995.617L423.741 989.98L425.797 995.617ZM616.805 962.696L613.576 967.753L616.805 962.696ZM256.494 1228.37L250.525 1227.76L256.494 1228.37ZM186.941 1733.88L187.734 1739.83L186.941 1733.88ZM87.857 2505.6L93.8496 2505.3L87.857 2505.6ZM777.368 3063.92L783.328 3063.23L777.368 3063.92ZM717.334 3605.49L722.046 3609.2L717.334 3605.49ZM717.334 3518.02L720.438 3512.88L717.334 3518.02ZM186.941 3563.92L181.092 3562.59L186.941 3563.92ZM188.163 4416.48C186.214 4419.16 186.805 4422.91 189.485 4424.86C192.164 4426.81 195.917 4426.22 197.866 4423.54L188.163 4416.48ZM16 0C16 -3.31371 13.3137 -6 10 -6C6.68629 -6 4 -3.31371 4 0L16 0ZM4.00534 794.634C8.1218 892.176 17.7107 947.33 38.6062 980.531C59.9823 1014.5 92.5828 1024.63 137.841 1034.72L140.454 1023.01C95.0922 1012.89 67.2429 1003.5 48.7622 974.139C29.801 944.011 20.1263 892.029 15.9947 794.128L4.00534 794.634ZM138.341 1034.81C178.976 1040.33 244.761 1034.3 303.137 1025.86C332.453 1021.62 360.118 1016.74 382.142 1012.3C403.99 1007.9 420.71 1003.86 427.853 1001.25L423.741 989.98C417.589 992.224 401.757 996.109 379.773 1000.54C357.964 1004.93 330.517 1009.77 301.42 1013.98C242.97 1022.44 178.725 1028.19 139.955 1022.92L138.341 1034.81ZM427.853 1001.25C467.014 986.971 503.364 972.03 535.587 963.976C567.891 955.902 594.089 955.309 613.576 967.753L620.034 957.639C596.14 942.38 565.633 944.097 532.677 952.334C499.641 960.591 462.178 975.962 423.741 989.98L427.853 1001.25ZM613.576 967.753C628.239 977.117 640.735 996.172 649.974 1020.64C659.141 1044.92 664.768 1073.65 666.299 1101.21C667.834 1128.84 665.221 1154.76 658.329 1173.59C651.382 1192.57 640.928 1202.51 627.556 1202.73L627.759 1214.73C648.574 1214.38 661.996 1198.48 669.598 1177.71C677.256 1156.8 679.866 1129.08 678.281 1100.54C676.691 1071.93 670.855 1041.97 661.2 1016.4C651.616 991.019 637.929 969.067 620.034 957.639L613.576 967.753ZM627.556 1202.73C619.862 1202.86 608.582 1200.88 594.218 1197.32C579.986 1193.78 563.281 1188.84 544.918 1183.34C508.323 1172.37 465.334 1159.21 423.91 1151.21C382.657 1143.25 341.951 1140.17 310.207 1150.12C294.19 1155.15 280.281 1163.54 269.831 1176.42C259.384 1189.29 252.731 1206.22 250.525 1227.76L262.463 1228.98C264.482 1209.27 270.459 1194.68 279.148 1183.98C287.834 1173.28 299.567 1166.04 313.798 1161.57C342.547 1152.56 380.757 1155.1 421.635 1163C462.344 1170.86 504.704 1183.81 541.472 1194.83C559.791 1200.32 576.77 1205.35 591.326 1208.96C605.75 1212.55 618.361 1214.89 627.759 1214.73L627.556 1202.73ZM771.408 3064.61C802.499 3333.57 803.732 3486.21 712.623 3601.77L722.046 3609.2C816.692 3489.16 814.314 3331.27 783.328 3063.23L771.408 3064.61ZM720.438 3512.88C685.388 3491.7 569.41 3426.7 453.121 3405.25C394.974 3394.53 335.967 3394.54 286.831 3417.13C237.339 3439.88 198.825 3485.09 181.092 3562.59L192.79 3565.26C209.834 3490.77 246.278 3448.98 291.844 3428.03C337.766 3406.92 393.916 3406.53 450.944 3417.05C565.005 3438.09 679.446 3502.13 714.231 3523.15L720.438 3512.88ZM385.527 2096.59C310.987 2076.2 253.499 2078.41 209.475 2097.27C165.367 2116.16 135.687 2151.37 116.037 2195.09C76.9453 2282.07 76.81 2404.44 81.8644 2505.9L93.8496 2505.3C88.7823 2403.58 89.2299 2284.01 126.982 2200.01C145.753 2158.24 173.561 2125.7 214.2 2108.3C254.923 2090.86 309.441 2088.22 382.362 2108.16L385.527 2096.59ZM186.148 1727.94C155.252 1732.06 134.118 1737.41 121.603 1744.2C115.327 1747.6 110.472 1751.76 108.075 1757.03C105.535 1762.62 106.235 1768.35 108.854 1773.58C111.375 1778.61 115.758 1783.43 121.179 1788.04C126.662 1792.7 133.558 1797.44 141.528 1802.25C157.465 1811.86 178.195 1822.03 201.646 1832.57C248.434 1853.59 307.248 1876.59 361.596 1899.75C416.308 1923.06 466.57 1946.55 497.59 1968.9L504.605 1959.17C472.345 1935.92 420.88 1911.96 366.299 1888.71C311.356 1865.3 253.313 1842.63 206.564 1821.62C183.246 1811.14 163.037 1801.21 147.726 1791.97C140.071 1787.35 133.766 1782.99 128.952 1778.89C124.076 1774.75 121.067 1771.17 119.584 1768.21C118.2 1765.44 118.284 1763.57 118.998 1762C119.854 1760.12 122.124 1757.57 127.325 1754.75C137.764 1749.08 156.994 1743.93 187.734 1739.83L186.148 1727.94ZM250.525 1227.76C220.466 1521.31 275.282 1691.45 357.508 1783.18C439.852 1875.04 548.66 1887.14 623.503 1866.73C660.708 1856.59 690.543 1838.12 704.114 1816.34C710.998 1805.29 713.822 1793.13 710.781 1780.93C707.76 1768.8 699.188 1757.6 685.194 1747.87C657.408 1728.57 606.529 1713.87 526.232 1708.76C445.7 1703.63 334.774 1708.12 186.148 1727.94L187.734 1739.83C335.894 1720.07 445.983 1715.67 525.47 1720.73C605.191 1725.81 653.334 1740.35 678.347 1757.73C690.752 1766.35 697.024 1775.35 699.137 1783.83C701.232 1792.23 699.481 1801.08 693.929 1809.99C682.626 1828.13 656.139 1845.39 620.347 1855.15C549.195 1874.55 445.307 1863.15 366.444 1775.17C287.462 1687.06 232.561 1521 262.463 1228.98L250.525 1227.76ZM497.59 1968.9C528.899 1991.46 555.353 2016.15 572.891 2039.11C581.661 2050.58 588.074 2061.46 591.8 2071.27C595.54 2081.12 596.42 2089.48 594.753 2096.2C591.642 2108.76 578.202 2119.59 544.111 2121.62C510.397 2123.62 459.05 2116.69 385.527 2096.59L382.362 2108.16C456.301 2128.38 509.148 2135.72 544.824 2133.59C580.124 2131.49 601.269 2119.8 606.401 2099.09C608.856 2089.18 607.271 2078.21 603.019 2067.01C598.754 2055.78 591.646 2043.89 582.426 2031.82C563.983 2007.68 536.577 1982.2 504.605 1959.17L497.59 1968.9ZM16 794.381L16 0L4 0L4 794.381L16 794.381ZM81.8644 2505.9C88.0674 2630.42 101.335 2714.28 120.335 2767.74C139.287 2821.08 164.737 2846.13 196.375 2848.73C211.802 2850 227.868 2845.8 244.168 2838.14C260.483 2830.48 277.4 2819.17 294.666 2805.77C329.108 2779.02 365.933 2743.09 402.881 2709.35C440.071 2675.39 477.47 2643.58 513.748 2624.07C549.998 2604.58 583.983 2597.98 615.167 2612.45C646.661 2627.06 677.105 2663.94 704.062 2736.03C730.955 2807.94 753.976 2913.81 771.408 3064.61L783.328 3063.23C765.85 2912.04 742.69 2805.06 715.302 2731.82C687.977 2658.76 656.038 2618.18 620.217 2601.56C584.087 2584.8 545.825 2593.2 508.066 2613.5C470.336 2633.79 431.964 2666.55 394.79 2700.49C357.375 2734.65 321.244 2769.94 287.306 2796.29C270.383 2809.43 254.254 2820.15 239.065 2827.28C223.86 2834.43 209.961 2837.81 197.36 2836.78C172.942 2834.77 150.083 2815.62 131.642 2763.73C113.248 2711.96 100.038 2629.54 93.8496 2505.3L81.8644 2505.9ZM712.623 3601.77C690.596 3629.71 677.767 3652.19 672.059 3669.86C666.38 3687.44 667.411 3701.52 675.287 3710.99C683.05 3720.31 695.83 3723.14 708.968 3722.17C722.292 3721.2 737.289 3716.28 751.382 3708.43C779.373 3692.85 805.754 3664.48 807.456 3628.8C809.176 3592.76 785.629 3552.28 720.438 3512.88L714.231 3523.15C777.85 3561.6 796.881 3598.67 795.47 3628.23C794.042 3658.16 771.582 3683.45 745.544 3697.95C732.623 3705.15 719.309 3709.38 708.089 3710.21C696.685 3711.04 688.689 3708.33 684.51 3703.31C680.445 3698.42 678.367 3689.37 683.478 3673.54C688.56 3657.81 700.42 3636.63 722.046 3609.2L712.623 3601.77ZM181.092 3562.59C164.835 3633.64 171.529 3703.62 186.866 3773.13C202.124 3842.28 226.307 3912.27 245.019 3981.74C282.618 4121.33 299.646 4263.27 188.163 4416.48L197.866 4423.54C312.53 4265.96 294.561 4119.53 256.606 3978.62C237.541 3907.84 213.808 3839.54 198.584 3770.54C183.441 3701.91 177.087 3633.89 192.79 3565.26L181.092 3562.59Z" fill="#FD0E0E"/>
<path d="M20.519 789.051L14.519 789.051L14.519 789.177L14.5244 789.304L20.519 789.051ZM148.71 1021.6L147.405 1027.46L147.652 1027.51L147.904 1027.55L148.71 1021.6ZM433.236 988.625L431.182 982.987L433.236 988.625ZM622.829 955.976L619.602 961.034L622.829 955.976ZM265.187 1219.46L259.219 1218.84L265.187 1219.46ZM196.15 1720.8L196.942 1726.74L196.15 1720.8ZM97.7993 2486.14L103.792 2485.84L97.7993 2486.14ZM782.203 3039.85L788.163 3039.16L782.203 3039.85ZM722.614 3576.94L717.904 3573.23L722.614 3576.94ZM722.614 3490.2L725.715 3485.06L722.614 3490.2ZM196.15 3535.72L190.301 3534.38L196.15 3535.72ZM381.309 4565C381.309 4568.31 383.995 4571 387.309 4571C390.622 4571 393.309 4568.31 393.309 4565L381.309 4565ZM26.519 1.23019C26.519 -2.08351 23.8328 -4.76981 20.519 -4.76981C17.2053 -4.76981 14.519 -2.08351 14.519 1.23019L26.519 1.23019ZM14.5244 789.304C18.6103 886.039 28.1279 940.752 48.877 973.692C70.1062 1007.39 102.483 1017.44 147.405 1027.46L150.015 1015.74C104.988 1005.71 77.3628 996.399 59.0305 967.296C40.2181 937.431 30.6148 885.892 26.5137 788.798L14.5244 789.304ZM147.904 1027.55C188.245 1033.02 253.547 1027.04 311.491 1018.67C340.59 1014.46 368.05 1009.62 389.912 1005.22C411.598 1000.86 428.197 996.847 435.29 994.262L431.182 982.987C425.078 985.211 409.366 989.065 387.545 993.456C365.899 997.812 338.656 1002.62 309.775 1006.79C251.758 1015.17 187.993 1020.87 149.517 1015.65L147.904 1027.55ZM435.29 994.262C474.163 980.097 510.241 965.281 542.222 957.294C574.285 949.287 600.275 948.702 619.602 961.034L626.057 950.918C602.324 935.775 572.028 937.482 539.315 945.651C506.52 953.841 469.331 969.086 431.182 982.987L435.29 994.262ZM619.602 961.034C634.144 970.313 646.542 989.199 655.711 1013.46C664.808 1037.53 670.393 1066.02 671.912 1093.35C673.435 1120.75 670.842 1146.45 664.005 1165.11C657.112 1183.92 646.748 1193.76 633.5 1193.98L633.703 1205.98C654.388 1205.63 667.723 1189.84 675.272 1169.24C682.876 1148.48 685.467 1120.99 683.894 1092.68C682.316 1064.3 676.522 1034.58 666.936 1009.22C657.422 984.041 643.831 962.259 626.057 950.918L619.602 961.034ZM633.5 1193.98C625.868 1194.11 614.676 1192.15 600.419 1188.61C586.294 1185.11 569.713 1180.21 551.486 1174.75C515.163 1163.87 472.49 1150.82 431.371 1142.89C390.422 1134.99 350.009 1131.93 318.49 1141.81C302.587 1146.79 288.773 1155.12 278.392 1167.9C268.016 1180.67 261.409 1197.47 259.219 1218.84L271.156 1220.07C273.159 1200.53 279.089 1186.07 287.706 1175.46C296.321 1164.86 307.958 1157.68 322.078 1153.26C350.605 1144.32 388.523 1146.84 429.097 1154.67C469.502 1162.47 511.547 1175.31 548.043 1186.24C566.226 1191.69 583.08 1196.67 597.529 1200.26C611.847 1203.81 624.369 1206.14 633.703 1205.98L633.5 1193.98ZM776.242 3040.54C807.104 3307.28 808.323 3458.64 717.904 3573.23L727.324 3580.66C821.284 3461.59 818.918 3304.98 788.163 3039.16L776.242 3040.54ZM725.715 3485.06C690.924 3464.05 575.799 3399.59 460.364 3378.31C402.645 3367.67 344.065 3367.68 295.283 3390.09C246.144 3412.66 207.905 3457.51 190.301 3534.38L201.998 3537.06C218.913 3463.2 255.077 3421.76 300.292 3400.99C345.863 3380.06 401.587 3379.68 458.19 3390.11C571.398 3410.98 684.986 3474.48 719.512 3495.33L725.715 3485.06ZM393.275 2080.45C319.282 2060.24 262.21 2062.43 218.501 2081.13C174.707 2099.87 145.24 2134.8 125.731 2178.17C86.9227 2264.44 86.7898 2385.81 91.8067 2486.44L103.792 2485.84C98.762 2384.96 99.2077 2266.39 136.674 2183.09C155.303 2141.68 182.897 2109.42 223.222 2092.16C263.632 2074.87 317.737 2072.26 390.112 2092.03L393.275 2080.45ZM195.357 1714.85C164.69 1718.93 143.705 1724.24 131.276 1730.98C125.043 1734.36 120.214 1738.49 117.828 1743.73C115.298 1749.29 115.997 1754.99 118.602 1760.19C121.109 1765.19 125.465 1769.97 130.848 1774.54C136.292 1779.17 143.14 1783.87 151.052 1788.64C166.873 1798.17 187.452 1808.26 210.729 1818.71C257.17 1839.56 315.551 1862.37 369.495 1885.33C423.802 1908.45 473.687 1931.75 504.473 1953.92L511.484 1944.18C479.459 1921.12 428.37 1897.35 374.195 1874.29C319.656 1851.08 262.046 1828.59 215.643 1807.76C192.498 1797.37 172.442 1787.52 157.246 1778.36C149.649 1773.78 143.392 1769.45 138.616 1765.39C133.779 1761.29 130.798 1757.74 129.331 1754.81C127.962 1752.08 128.048 1750.24 128.749 1748.7C129.593 1746.85 131.835 1744.33 136.994 1741.53C147.348 1735.92 166.43 1730.81 196.942 1726.74L195.357 1714.85ZM259.219 1218.84C229.381 1509.98 283.791 1678.73 365.422 1769.72C447.169 1860.84 555.188 1872.83 629.488 1852.59C666.422 1842.53 696.048 1824.21 709.528 1802.6C716.367 1791.63 719.174 1779.55 716.152 1767.44C713.149 1755.39 704.631 1744.27 690.735 1734.63C663.145 1715.48 612.633 1700.89 532.929 1695.83C452.991 1690.74 342.884 1695.19 195.357 1714.85L196.942 1726.74C344.002 1707.15 453.273 1702.79 532.168 1707.8C611.297 1712.83 659.074 1727.26 683.892 1744.49C696.2 1753.03 702.415 1761.94 704.509 1770.34C706.583 1778.66 704.851 1787.42 699.345 1796.25C688.135 1814.22 661.857 1831.34 626.334 1841.01C555.721 1860.25 452.619 1848.94 374.354 1761.7C295.971 1674.34 241.476 1509.67 271.156 1220.07L259.219 1218.84ZM504.473 1953.92C535.547 1976.29 561.803 2000.77 579.207 2023.53C587.91 2034.91 594.272 2045.69 597.969 2055.42C601.679 2065.18 602.548 2073.45 600.898 2080.11C597.818 2092.52 584.508 2103.26 550.672 2105.28C517.213 2107.26 466.252 2100.39 393.275 2080.45L390.112 2092.03C463.505 2112.08 515.966 2119.36 551.384 2117.25C586.423 2115.17 607.443 2103.57 612.545 2083C614.985 2073.15 613.409 2062.27 609.186 2051.16C604.95 2040.01 597.892 2028.21 588.739 2016.24C570.429 1992.3 543.222 1967.02 511.484 1944.18L504.473 1953.92ZM26.519 789.051L26.519 1.23019L14.519 1.23019L14.519 789.051L26.519 789.051ZM91.8067 2486.44C97.9639 2609.94 111.134 2693.1 129.995 2746.13C148.81 2799.04 174.083 2823.9 205.511 2826.49C220.832 2827.75 236.786 2823.58 252.969 2815.98C269.168 2808.38 285.962 2797.17 303.102 2783.87C337.29 2757.34 373.845 2721.7 410.518 2688.24C447.432 2654.57 484.55 2623.02 520.555 2603.68C556.531 2584.35 590.25 2577.81 621.187 2592.15C652.431 2606.63 682.643 2643.2 709.399 2714.68C736.091 2786 758.94 2890.99 776.242 3040.54L788.163 3039.16C770.814 2889.21 747.825 2783.11 720.637 2710.48C693.513 2638 661.804 2597.75 626.233 2581.26C590.354 2564.63 552.361 2572.97 514.876 2593.11C477.421 2613.23 439.33 2645.72 402.431 2679.38C365.291 2713.26 329.43 2748.25 295.746 2774.39C278.949 2787.42 262.943 2798.04 247.87 2805.12C232.782 2812.2 218.993 2815.56 206.494 2814.53C182.282 2812.54 159.603 2793.57 141.301 2742.11C123.046 2690.78 109.935 2609.05 103.792 2485.84L91.8067 2486.44ZM717.904 3573.23C696.038 3600.93 683.301 3623.23 677.632 3640.76C671.992 3658.21 673.011 3672.2 680.846 3681.6C688.565 3690.87 701.266 3693.67 714.313 3692.72C727.544 3691.74 742.436 3686.87 756.429 3679.08C784.218 3663.62 810.421 3635.48 812.113 3600.07C813.821 3564.3 790.428 3524.14 725.715 3485.06L719.512 3495.33C782.656 3533.46 801.525 3570.21 800.126 3599.5C798.71 3629.15 776.434 3654.22 750.595 3668.6C737.774 3675.73 724.564 3679.93 713.434 3680.75C702.119 3681.58 694.199 3678.88 690.065 3673.92C686.046 3669.1 683.98 3660.14 689.05 3644.45C694.092 3628.86 705.86 3607.86 727.324 3580.66L717.904 3573.23ZM190.301 3534.38C158.116 3674.92 206.716 3807.74 262.272 3966.82C317.96 4126.28 381.309 4313.52 381.309 4565L393.309 4565C393.309 4311.37 329.354 4122.51 273.601 3962.86C217.715 3802.84 170.736 3673.57 201.998 3537.06L190.301 3534.38Z" fill="#FB5A14"/>
<path d="M30.8276 779.697L24.8276 779.697L24.8276 779.824L24.833 779.951L30.8276 779.697ZM157.916 1009.49L156.615 1015.34L156.862 1015.4L157.112 1015.43L157.916 1009.49ZM439.994 976.902L437.946 971.262L439.994 976.902ZM627.957 944.641L624.737 949.704L627.957 944.641ZM273.391 1204.99L267.423 1204.38L273.391 1204.99ZM204.947 1700.38L205.737 1706.33L204.947 1700.38ZM107.443 2456.64L101.451 2456.94L107.443 2456.64ZM785.959 3003.77L779.999 3004.46L785.959 3003.77ZM726.883 3534.49L731.587 3538.21L726.883 3534.49ZM726.883 3448.77L729.977 3443.63L726.883 3448.77ZM204.947 3493.76L210.803 3495.07L204.947 3493.76ZM749.017 4179.74C752.175 4178.74 753.921 4175.37 752.917 4172.21C751.913 4169.05 748.539 4167.3 745.381 4168.31L749.017 4179.74ZM36.8276 1.23019C36.8276 -2.08351 34.1413 -4.76981 30.8276 -4.76981C27.5139 -4.76981 24.8276 -2.08351 24.8276 1.23019L36.8276 1.23019ZM24.833 779.951C28.8837 875.536 38.3191 929.622 58.9027 962.191C79.9646 995.518 112.084 1005.45 156.615 1015.34L159.217 1003.63C114.573 993.711 87.206 984.514 69.0467 955.781C50.4092 926.29 40.8881 875.386 36.8223 779.443L24.833 779.951ZM157.112 1015.43C197.111 1020.84 261.856 1014.93 319.301 1006.66C348.15 1002.5 375.375 997.718 397.049 993.371C418.548 989.059 435.008 985.096 442.043 982.541L437.946 971.262C431.898 973.459 416.324 977.266 394.69 981.605C373.231 985.909 346.222 990.657 317.59 994.78C260.073 1003.06 196.861 1008.7 158.72 1003.54L157.112 1015.43ZM442.043 982.541C480.584 968.543 516.347 953.904 548.051 946.013C579.837 938.101 605.591 937.528 624.737 949.704L631.176 939.578C607.633 924.605 577.586 926.295 545.153 934.368C512.638 942.461 475.765 957.527 437.946 971.262L442.043 982.541ZM624.737 949.704C639.139 958.863 651.423 977.509 660.509 1001.47C669.525 1025.25 675.06 1053.39 676.566 1080.39C678.076 1107.45 675.505 1132.83 668.732 1151.26C661.906 1169.83 651.648 1179.53 638.535 1179.75L638.737 1191.75C659.265 1191.4 672.503 1175.78 679.995 1155.4C687.539 1134.88 690.108 1107.69 688.547 1079.72C686.982 1051.67 681.237 1022.29 671.73 997.219C662.294 972.333 648.813 950.794 631.176 939.578L624.737 949.704ZM638.535 1179.75C630.973 1179.88 619.881 1177.94 605.747 1174.44C591.744 1170.98 575.307 1166.14 557.237 1160.74C521.226 1149.99 478.919 1137.1 438.151 1129.26C397.553 1121.45 357.482 1118.44 326.225 1128.2C310.454 1133.12 296.749 1141.36 286.449 1153.99C276.151 1166.63 269.595 1183.25 267.423 1204.38L279.36 1205.61C281.344 1186.31 287.218 1172.04 295.75 1161.57C304.281 1151.11 315.809 1144.02 329.803 1139.65C358.075 1130.82 395.661 1133.31 435.885 1141.05C475.94 1148.75 517.621 1161.44 553.804 1172.24C571.83 1177.62 588.54 1182.55 602.867 1186.09C617.061 1189.6 629.479 1191.9 638.737 1191.75L638.535 1179.75ZM779.999 3004.46C810.596 3268.05 811.797 3417.57 722.179 3530.76L731.587 3538.21C824.762 3420.53 822.409 3265.74 791.919 3003.08L779.999 3004.46ZM729.977 3443.63C695.479 3422.87 580.896 3359.05 466.229 3337.98C408.896 3327.44 350.752 3327.43 302.457 3349.6C253.796 3371.94 216.097 3416.35 199.092 3492.45L210.803 3495.07C227.13 3422 262.749 3381.03 307.463 3360.5C352.543 3339.81 407.831 3339.44 464.059 3349.78C576.513 3370.45 689.566 3433.31 723.789 3453.91L729.977 3443.63ZM400.386 2055.7C327.025 2035.72 270.436 2037.88 227.093 2056.37C183.662 2074.89 154.438 2109.42 135.09 2152.29C96.6065 2237.56 96.4769 2357.51 101.451 2456.94L113.436 2456.34C108.449 2356.65 108.893 2239.51 146.028 2157.22C164.489 2116.32 191.835 2084.45 231.8 2067.41C271.853 2050.32 325.484 2047.74 397.233 2067.28L400.386 2055.7ZM204.158 1694.43C173.754 1698.47 152.944 1703.72 140.615 1710.38C134.433 1713.72 129.631 1717.81 127.255 1723.01C124.734 1728.53 125.433 1734.19 128.024 1739.34C130.516 1744.3 134.843 1749.03 140.181 1753.55C145.582 1758.12 152.373 1762.77 160.218 1767.48C175.906 1776.9 196.309 1786.87 219.387 1797.2C265.429 1817.8 323.31 1840.34 376.788 1863.03C430.628 1885.88 480.08 1908.9 510.596 1930.79L517.592 1921.04C485.837 1898.26 435.183 1874.77 381.475 1851.99C327.403 1829.04 270.291 1806.83 224.288 1786.24C201.342 1775.98 181.46 1766.24 166.397 1757.19C158.867 1752.67 152.667 1748.39 147.935 1744.39C143.141 1740.33 140.194 1736.83 138.746 1733.95C137.397 1731.27 137.489 1729.48 138.171 1727.99C138.997 1726.18 141.206 1723.7 146.318 1720.94C156.576 1715.39 175.487 1710.34 205.737 1706.33L204.158 1694.43ZM267.423 1204.38C237.84 1492.07 291.784 1658.85 372.731 1748.78C453.792 1838.83 560.898 1850.68 634.567 1830.68C671.184 1820.74 700.572 1802.63 713.948 1781.25C720.737 1770.4 723.529 1758.45 720.526 1746.44C717.542 1734.52 709.082 1723.52 695.3 1713.98C667.937 1695.05 617.851 1680.64 538.832 1675.64C459.579 1670.61 350.417 1675.01 204.158 1694.43L205.737 1706.33C351.531 1686.97 459.86 1682.66 538.073 1687.61C616.521 1692.58 663.878 1706.84 688.472 1723.85C700.669 1732.29 706.815 1741.09 708.884 1749.36C710.934 1757.55 709.225 1766.18 703.775 1774.89C692.675 1792.63 666.638 1809.54 631.423 1819.1C561.424 1838.11 459.226 1826.93 381.65 1740.75C303.962 1654.44 249.937 1491.76 279.36 1205.61L267.423 1204.38ZM510.596 1930.79C541.4 1952.9 567.425 1977.09 584.674 1999.57C593.3 2010.81 599.603 2021.46 603.264 2031.06C606.938 2040.7 607.795 2048.85 606.165 2055.4C603.125 2067.62 589.97 2078.23 556.418 2080.22C523.253 2082.19 472.733 2075.4 400.386 2055.7L397.233 2067.28C469.995 2087.09 522.009 2094.28 557.128 2092.2C591.859 2090.14 612.738 2078.68 617.81 2058.3C620.235 2048.55 618.667 2037.77 614.477 2026.79C610.273 2015.76 603.271 2004.09 594.194 1992.26C576.037 1968.6 549.059 1943.62 517.592 1921.04L510.596 1930.79ZM36.8276 779.697L36.8276 1.23019L24.8276 1.23019L24.8276 779.697L36.8276 779.697ZM101.451 2456.94C107.555 2578.97 120.612 2661.16 139.315 2713.58C157.974 2765.87 183.046 2790.46 214.225 2793.02C229.422 2794.26 245.245 2790.14 261.293 2782.63C277.357 2775.11 294.01 2764.03 311.004 2750.89C344.9 2724.68 381.144 2689.46 417.499 2656.4C454.095 2623.12 490.89 2591.95 526.579 2572.85C562.24 2553.75 595.657 2547.29 626.313 2561.45C657.271 2575.76 687.214 2611.87 713.735 2682.5C740.194 2752.96 762.846 2856.69 779.999 3004.46L791.919 3003.08C774.719 2854.91 751.927 2750.06 724.969 2678.28C698.075 2606.66 666.629 2566.86 631.346 2550.56C595.761 2534.12 558.083 2542.37 520.915 2562.27C483.776 2582.15 446.008 2614.26 409.426 2647.52C372.604 2681 337.055 2715.58 303.663 2741.4C287.012 2754.27 271.147 2764.77 256.208 2771.76C241.253 2778.76 227.589 2782.07 215.205 2781.06C191.223 2779.09 168.755 2760.37 150.617 2709.54C132.524 2658.83 119.526 2578.08 113.436 2456.34L101.451 2456.94ZM722.179 3530.76C700.499 3558.15 687.865 3580.19 682.241 3597.52C676.645 3614.77 677.649 3628.64 685.441 3637.96C693.11 3647.14 705.72 3649.9 718.655 3648.96C731.779 3648 746.548 3643.18 760.425 3635.48C787.979 3620.2 813.984 3592.38 815.663 3557.34C817.36 3521.95 794.134 3482.25 729.977 3443.63L723.789 3453.91C786.387 3491.59 805.062 3527.88 803.677 3556.77C802.275 3586.03 780.219 3610.79 754.605 3624.99C741.899 3632.04 728.808 3636.18 717.78 3636.99C706.563 3637.81 698.729 3635.15 694.648 3630.26C690.688 3625.53 688.633 3616.71 693.655 3601.23C698.649 3585.83 710.31 3565.09 731.587 3538.21L722.179 3530.76ZM199.092 3492.45C165.515 3642.71 212.769 3842.72 312.891 3990.9C413.07 4139.18 567.649 4237.41 749.017 4179.74L745.381 4168.31C571.144 4223.71 421.451 4130.15 322.834 3984.19C224.158 3838.14 178.089 3641.47 210.803 3495.07L199.092 3492.45Z" fill="#2368D0"/>
</g>
<defs>
<filter id="filter0_f_168_173" x="0" y="-10" width="819.749" height="4585" filterUnits="userSpaceOnUse" color-interpolation-filters="sRGB">
<feFlood flood-opacity="0" result="BackgroundImageFix"/>
<feBlend mode="normal" in="SourceGraphic" in2="BackgroundImageFix" result="shape"/>
<feGaussianBlur stdDeviation="2" result="effect1_foregroundBlur_168_173"/>
</filter>
</defs>
</svg>
