<svg width="337" height="4381" viewBox="0 0 337 4381" fill="none" xmlns="http://www.w3.org/2000/svg">
<g opacity="0.6" filter="url(#filter0_f_170_2)">
<path d="M8 764.966L4 764.966L4 765.002L4.00063 765.037L8 764.966ZM59.8369 989.342L57.9588 992.873L58.2699 993.039L58.6051 993.147L59.8369 989.342ZM174.891 957.525L172.267 954.507L174.891 957.525ZM251.558 926.024L248.214 928.22L251.558 926.024ZM106.937 1180.24L102.941 1180.07L106.937 1180.24ZM79.0201 1663.96L80.2321 1667.77L79.0201 1663.96ZM39.25 2402.4L43.2491 2402.32L39.25 2402.4ZM316.004 2936.64L319.999 2936.45L316.004 2936.64ZM291.908 3454.86L295.705 3456.12L291.908 3454.86ZM291.908 3371.16L295.194 3368.88L291.908 3371.16ZM79.0201 3415.09L75.0384 3414.71L79.0201 3415.09ZM75.3486 4221.99C74.4719 4224.01 75.4051 4226.37 77.4328 4227.25C79.4606 4228.12 81.8151 4227.19 82.6917 4225.16L75.3486 4221.99ZM12 4.83856C12 2.62942 10.2091 0.838562 8 0.838562C5.79086 0.838562 4 2.62942 4 4.83856L12 4.83856ZM4.00063 765.037C5.65431 858.454 9.50923 910.206 17.6526 941.053C21.7532 956.586 27.0079 967.104 33.8256 975.03C40.6285 982.939 48.7455 987.974 57.9588 992.873L61.715 985.81C52.7418 981.038 45.6998 976.567 39.8906 969.814C34.0962 963.077 29.2857 953.776 25.3876 939.011C17.5333 909.259 13.6563 858.495 11.9994 764.895L4.00063 765.037ZM58.6051 993.147C67.4627 996.014 78.7117 995.788 90.3719 993.98C102.129 992.158 114.756 988.653 126.618 984.563C138.492 980.469 149.695 975.756 158.625 971.468C167.395 967.257 174.39 963.261 177.516 960.544L172.267 954.507C170.056 956.429 163.985 960.019 155.162 964.256C146.499 968.415 135.582 973.01 124.01 977C112.426 980.994 100.283 984.348 89.1465 986.075C77.9136 987.816 68.147 987.827 61.0687 985.536L58.6051 993.147ZM177.516 960.544C181.435 957.136 185.303 953.671 189.081 950.29C192.868 946.901 196.563 943.598 200.176 940.478C207.43 934.214 214.189 928.829 220.422 925.115C226.718 921.364 231.971 919.628 236.322 919.944C240.371 920.238 244.374 922.373 248.214 928.22L254.901 923.828C250.035 916.42 243.995 912.481 236.903 911.965C230.113 911.471 223.128 914.19 216.327 918.243C209.463 922.333 202.267 928.101 194.947 934.424C191.273 937.597 187.526 940.946 183.746 944.329C179.958 947.719 176.134 951.144 172.267 954.507L177.516 960.544ZM248.214 928.22C251.15 932.69 253.964 939.624 256.527 948.616C259.073 957.544 261.3 968.244 263.173 980.067C266.917 1003.71 269.206 1031.61 269.829 1058.34C270.452 1085.09 269.402 1110.5 266.532 1129.19C265.091 1138.57 263.228 1146.01 261.016 1151.04C259.909 1153.56 258.81 1155.25 257.812 1156.27C256.854 1157.25 256.179 1157.44 255.753 1157.46L256.074 1165.45C259.079 1165.33 261.576 1163.87 263.537 1161.86C265.458 1159.89 267.025 1157.25 268.339 1154.26C270.968 1148.28 272.96 1140.04 274.44 1130.4C277.409 1111.07 278.456 1085.14 277.827 1058.15C277.197 1031.14 274.885 1002.87 271.074 978.815C269.169 966.788 266.881 955.754 264.221 946.423C261.579 937.156 258.499 929.306 254.901 923.828L248.214 928.22ZM255.753 1157.46C254.841 1157.49 253.387 1157.23 251.261 1156.39C249.186 1155.57 246.745 1154.31 243.949 1152.66C238.345 1149.34 231.726 1144.68 224.338 1139.4C209.727 1128.95 192.255 1116.2 175.35 1108.42C158.623 1100.72 140.856 1097.15 126.821 1107.64C113.1 1117.9 104.641 1140.48 102.941 1180.07L110.933 1180.41C112.624 1141.06 121.052 1121.95 131.612 1114.05C141.858 1106.39 155.766 1108.21 172.005 1115.68C188.066 1123.08 204.852 1135.3 219.686 1145.9C227.021 1151.15 233.922 1156.02 239.874 1159.54C242.855 1161.31 245.7 1162.8 248.324 1163.83C250.898 1164.85 253.556 1165.55 256.074 1165.45L255.753 1157.46ZM312.008 2936.84C324.476 3193.96 325.11 3341.73 288.11 3453.6L295.705 3456.12C333.263 3342.55 332.448 3193.18 319.999 2936.45L312.008 2936.84ZM295.194 3368.88C288.118 3358.69 272.934 3338.04 253.672 3317.36C234.482 3296.75 210.912 3275.74 187.032 3265.24C175.047 3259.97 162.745 3257.24 150.757 3258.75C138.68 3260.27 127.287 3266.05 117.165 3277.14C97.1558 3299.07 82.0315 3341.85 75.0384 3414.71L83.0018 3415.47C89.9673 3342.9 104.929 3302.42 123.074 3282.53C132.03 3272.72 141.73 3267.95 151.756 3266.69C161.872 3265.42 172.682 3267.67 183.811 3272.57C206.16 3282.39 228.825 3302.42 247.818 3322.81C266.737 3343.12 281.682 3363.44 288.621 3373.44L295.194 3368.88ZM160.277 2013.21C145.071 2003.3 131.251 1998.64 118.715 1999.01C106.065 1999.38 95.2534 2004.86 86.1551 2014.15C68.2431 2032.44 56.5495 2065.92 48.8265 2106.89C33.3162 2189.16 33.2206 2305.32 35.2509 2402.49L43.2491 2402.32C41.2167 2305.05 41.3551 2189.71 56.6881 2108.37C64.3868 2067.54 75.7671 2036.19 91.8706 2019.75C99.78 2011.67 108.711 2007.31 118.951 2007.01C129.305 2006.7 141.52 2010.53 155.908 2019.91L160.277 2013.21ZM77.8082 1660.15C65.0715 1664.2 56.0919 1669.56 50.7789 1676.43C45.3274 1683.48 44.1152 1691.62 45.9166 1700.19C47.6838 1708.61 52.3533 1717.54 58.7521 1726.74C65.1805 1735.99 73.5424 1745.76 82.9853 1755.88C101.768 1776 125.494 1798.13 147.216 1820.19C169.131 1842.45 189.232 1864.85 201.658 1886.2L208.572 1882.17C195.599 1859.89 174.869 1836.88 152.917 1814.58C130.771 1792.09 107.594 1770.52 88.8331 1750.42C79.5041 1740.43 71.4342 1730.97 65.32 1722.17C59.1764 1713.34 55.1929 1705.44 53.7458 1698.55C52.3331 1691.82 53.3457 1686.19 57.1073 1681.32C61.0075 1676.28 68.2294 1671.59 80.2321 1667.77L77.8082 1660.15ZM102.941 1180.07C90.9017 1460.36 112.884 1621.88 145.531 1708.7C161.843 1752.09 181.025 1777.38 200.509 1789.24C220.294 1801.28 239.947 1799.19 255.792 1788.89C271.429 1778.73 283.233 1760.71 288.427 1740.83C293.631 1720.92 292.324 1698.66 281.057 1679.99C269.729 1661.23 248.694 1646.7 215.651 1641.69C182.706 1636.69 137.692 1641.11 77.8082 1660.15L80.2321 1667.77C139.471 1648.94 183.167 1644.85 214.451 1649.6C245.634 1654.33 264.344 1667.79 274.209 1684.13C284.134 1700.57 285.467 1720.52 280.687 1738.81C275.898 1757.14 265.096 1773.3 251.433 1782.18C237.978 1790.93 221.639 1792.74 204.668 1782.41C187.397 1771.9 169.059 1748.55 153.019 1705.89C120.961 1620.63 98.9053 1460.45 110.933 1180.41L102.941 1180.07ZM201.658 1886.2C214.223 1907.78 224.91 1931.52 232.036 1953.75C239.19 1976.08 242.636 1996.51 241.065 2011.62C240.283 2019.15 238.285 2025.05 235.18 2029.2C232.159 2033.25 227.91 2035.9 221.961 2036.74C215.877 2037.61 207.863 2036.59 197.548 2032.85C187.259 2029.11 174.914 2022.75 160.277 2013.21L155.908 2019.91C170.865 2029.66 183.772 2036.36 194.819 2040.37C205.838 2044.37 215.243 2045.78 223.085 2044.66C231.061 2043.53 237.246 2039.81 241.59 2033.99C245.851 2028.28 248.151 2020.83 249.022 2012.45C250.761 1995.72 246.941 1974.05 239.654 1951.31C232.338 1928.49 221.406 1904.22 208.572 1882.17L201.658 1886.2ZM12 764.966L12 4.83856L4 4.83856L4 764.966L12 764.966ZM35.2509 2402.49C37.7385 2521.54 43.0551 2601.3 50.5987 2651.91C54.3661 2677.18 58.7208 2695.42 63.664 2707.71C68.4736 2719.67 74.4033 2727.41 82.2342 2728.94C90.1547 2730.5 97.536 2725.25 103.949 2718.07C110.592 2710.63 117.402 2699.76 124.301 2686.99C138.106 2661.43 152.852 2627.12 167.704 2594.79C182.662 2562.23 197.688 2531.78 212.206 2513.17C219.519 2503.8 226.234 2498.06 232.212 2496.13C235.083 2495.21 237.762 2495.17 240.374 2496.02C243.032 2496.88 245.906 2498.75 248.947 2502.11C255.109 2508.93 261.407 2521.25 267.537 2540.91C273.637 2560.46 279.453 2586.88 284.884 2621.5C295.745 2690.74 305.005 2792.41 312.008 2936.84L319.999 2936.45C312.991 2791.92 303.714 2689.92 292.788 2620.26C287.325 2585.43 281.435 2558.6 275.174 2538.52C268.944 2518.55 262.228 2504.87 254.881 2496.75C251.166 2492.64 247.162 2489.81 242.838 2488.41C238.468 2486.99 234.061 2487.14 229.762 2488.52C221.399 2491.21 213.439 2498.58 205.899 2508.25C190.711 2527.71 175.325 2559.04 160.435 2591.45C145.44 2624.09 130.903 2657.94 117.262 2683.19C110.438 2695.82 103.984 2706.02 97.9815 2712.74C91.7495 2719.72 87.1036 2721.74 83.7744 2721.09C80.3556 2720.42 75.8128 2716.48 71.0863 2704.73C66.4934 2693.31 62.2483 2675.8 58.5113 2650.73C51.0461 2600.64 45.7353 2521.3 43.2491 2402.32L35.2509 2402.49ZM288.11 3453.6C279.3 3480.24 274.272 3501.38 272.063 3517.68C269.87 3533.87 270.396 3545.7 273.105 3553.46C274.474 3557.38 276.507 3560.56 279.338 3562.6C282.26 3564.71 285.652 3565.33 289.063 3564.73C295.52 3563.6 301.996 3558.2 307.597 3550.76C330.319 3520.59 347.882 3444.8 295.194 3368.88L288.621 3373.44C339.336 3446.52 321.856 3518.53 301.207 3545.95C295.966 3552.9 291.077 3556.26 287.683 3556.85C286.169 3557.12 285.013 3556.83 284.021 3556.12C282.936 3555.33 281.686 3553.76 280.658 3550.82C278.575 3544.85 277.853 3534.53 279.991 3518.75C282.113 3503.09 286.994 3482.46 295.705 3456.12L288.11 3453.6ZM75.0384 3414.71C62.1552 3548.94 89.4454 3688.91 106.188 3825.78C122.972 3962.98 129.239 4097.33 75.3486 4221.99L82.6917 4225.16C137.494 4098.4 130.933 3962.17 114.129 3824.81C97.2848 3687.11 70.2286 3548.55 83.0018 3415.47L75.0384 3414.71Z" fill="#FD0E0E"/>
<path d="M12.2222 759.866L8.22217 759.866L8.22217 759.902L8.2228 759.937L12.2222 759.866ZM63.6751 982.389L61.7982 985.921L62.1092 986.086L62.4443 986.195L63.6751 982.389ZM177.877 950.835L175.254 947.815L177.877 950.835ZM253.975 919.594L250.633 921.791L253.975 919.594ZM110.426 1171.71L106.43 1171.54L110.426 1171.71ZM82.7162 1651.44L83.9272 1655.25L82.7162 1651.44ZM43.2407 2383.78L47.2398 2383.7L43.2407 2383.78ZM317.944 2913.61L321.94 2913.42L317.944 2913.61ZM294.027 3427.55L290.229 3426.29L294.027 3427.55ZM294.027 3344.54L297.312 3342.26L294.027 3344.54ZM82.7162 3388.1L78.7346 3387.72L82.7162 3388.1ZM155.443 4373C155.443 4375.21 157.234 4377 159.443 4377C161.652 4377 163.443 4375.21 163.443 4373L155.443 4373ZM16.2222 6.01575C16.2222 3.80661 14.4313 2.01575 12.2222 2.01575C10.013 2.01575 8.22217 3.80661 8.22217 6.01575L16.2222 6.01575ZM8.2228 759.937C9.86421 852.582 13.6905 903.911 21.7748 934.508C25.846 949.916 31.0638 960.353 37.8351 968.218C44.5915 976.066 52.6525 981.062 61.7982 985.921L65.5519 978.856C56.6459 974.124 49.6601 969.692 43.8979 962.999C38.1506 956.323 33.3777 947.104 29.5094 932.464C21.7146 902.963 17.8662 852.622 16.2215 759.795L8.2228 759.937ZM62.4443 986.195C71.2421 989.04 82.4127 988.814 93.988 987.021C105.66 985.214 118.195 981.737 129.97 977.681C141.757 973.621 152.878 968.945 161.743 964.693C170.448 960.516 177.395 956.552 180.5 953.855L175.254 947.815C173.063 949.718 167.041 953.278 158.283 957.48C149.685 961.604 138.849 966.161 127.364 970.117C115.867 974.078 103.815 977.404 92.7636 979.116C81.6153 980.842 71.9258 980.853 64.9059 978.583L62.4443 986.195ZM180.5 953.855C184.39 950.475 188.23 947.038 191.98 943.685C195.739 940.325 199.407 937.049 202.993 933.955C210.192 927.742 216.9 922.404 223.084 918.722C229.332 915.002 234.541 913.284 238.851 913.597C242.86 913.888 246.826 916 250.633 921.791L257.318 917.397C252.484 910.043 246.48 906.13 239.431 905.618C232.684 905.128 225.745 907.828 218.992 911.848C212.177 915.905 205.033 921.628 197.766 927.898C194.119 931.045 190.4 934.367 186.648 937.722C182.888 941.084 179.093 944.48 175.254 947.815L180.5 953.855ZM250.633 921.791C253.544 926.219 256.336 933.092 258.88 942.009C261.406 950.861 263.617 961.472 265.476 973.196C269.192 996.642 271.464 1024.31 272.082 1050.82C272.701 1077.35 271.659 1102.54 268.81 1121.08C267.38 1130.38 265.531 1137.76 263.337 1142.74C262.24 1145.23 261.15 1146.9 260.164 1147.91C259.217 1148.88 258.553 1149.06 258.138 1149.08L258.46 1157.07C261.45 1156.95 263.935 1155.5 265.886 1153.5C267.797 1151.55 269.354 1148.92 270.659 1145.96C273.271 1140.03 275.249 1131.84 276.717 1122.29C279.665 1103.11 280.704 1077.4 280.08 1050.63C279.455 1023.84 277.159 995.804 273.377 971.943C271.486 960.015 269.214 949.07 266.573 939.814C263.951 930.622 260.892 922.834 257.318 917.397L250.633 921.791ZM258.138 1149.08C257.239 1149.12 255.799 1148.86 253.691 1148.03C251.633 1147.21 249.212 1145.97 246.437 1144.33C240.876 1141.04 234.307 1136.41 226.973 1131.18C212.471 1120.82 195.126 1108.17 178.344 1100.45C161.739 1092.81 144.091 1089.27 130.147 1099.69C116.515 1109.87 108.118 1132.27 106.43 1171.54L114.423 1171.88C116.1 1132.86 124.466 1113.92 134.935 1106.1C145.092 1098.51 158.884 1100.3 175.001 1107.72C190.94 1115.05 207.599 1127.17 222.324 1137.69C229.605 1142.89 236.456 1147.72 242.364 1151.21C245.324 1152.96 248.15 1154.44 250.756 1155.47C253.312 1156.48 255.955 1157.18 258.46 1157.07L258.138 1149.08ZM313.949 2913.8C326.325 3168.81 326.953 3315.34 290.229 3426.29L297.824 3428.8C335.106 3316.17 334.296 3168.02 321.94 2913.42L313.949 2913.8ZM297.312 3342.26C290.288 3332.15 275.216 3311.67 256.095 3291.16C237.046 3270.72 213.647 3249.88 189.938 3239.46C178.04 3234.24 165.823 3231.53 153.919 3233.02C141.924 3234.53 130.609 3240.26 120.558 3251.27C100.689 3273.03 85.676 3315.46 78.7346 3387.72L86.6979 3388.49C93.6116 3316.51 108.462 3276.38 126.465 3256.67C135.349 3246.94 144.971 3242.21 154.916 3240.96C164.951 3239.7 175.676 3241.94 186.72 3246.79C208.898 3256.53 231.392 3276.39 250.243 3296.61C269.021 3316.76 283.854 3336.91 290.741 3346.82L297.312 3342.26ZM163.386 1997.77C148.29 1987.94 134.566 1983.32 122.116 1983.69C109.552 1984.06 98.814 1989.49 89.7784 1998.71C71.9917 2016.86 60.3832 2050.07 52.7173 2090.7C37.321 2172.3 37.2264 2287.5 39.2415 2383.86L47.2398 2383.7C45.2224 2287.23 45.36 2172.84 60.5786 2092.19C68.2201 2051.69 79.5147 2020.61 95.4914 2004.31C103.338 1996.31 112.196 1991.98 122.352 1991.68C132.622 1991.38 144.742 1995.18 159.02 2004.48L163.386 1997.77ZM81.5053 1647.62C68.8607 1651.64 59.941 1656.96 54.6617 1663.78C49.2435 1670.78 48.0392 1678.86 49.8291 1687.38C51.5845 1695.73 56.2225 1704.59 62.5749 1713.72C68.957 1722.89 77.2582 1732.59 86.6315 1742.62C105.275 1762.57 128.828 1784.52 150.387 1806.4C172.14 1828.48 192.089 1850.69 204.421 1871.86L211.333 1867.83C198.454 1845.73 177.875 1822.9 156.085 1800.79C134.102 1778.48 111.099 1757.09 92.477 1737.16C83.2175 1727.25 75.2085 1717.87 69.141 1709.15C63.0439 1700.39 59.0929 1692.56 57.658 1685.73C56.2575 1679.07 57.2615 1673.49 60.9882 1668.68C64.8538 1663.68 72.0156 1659.03 83.9272 1655.25L81.5053 1647.62ZM106.43 1171.54C94.4801 1449.52 116.3 1609.71 148.707 1695.82C164.9 1738.85 183.943 1763.95 203.291 1775.71C222.939 1787.66 242.458 1785.58 258.194 1775.36C273.722 1765.28 285.443 1747.4 290.601 1727.68C295.768 1707.93 294.471 1685.84 283.281 1667.32C272.031 1648.7 251.143 1634.29 218.338 1629.32C185.633 1624.36 140.948 1628.74 81.5053 1647.62L83.9272 1655.25C142.725 1636.57 186.093 1632.52 217.14 1637.23C248.087 1641.92 266.649 1655.26 276.434 1671.46C286.28 1687.75 287.603 1707.53 282.861 1725.66C278.109 1743.83 267.391 1759.85 253.837 1768.66C240.49 1777.32 224.283 1779.11 207.448 1768.88C190.312 1758.46 172.114 1735.31 156.194 1693.01C124.376 1608.45 102.484 1449.61 114.423 1171.88L106.43 1171.54ZM204.421 1871.86C216.892 1893.26 227.498 1916.8 234.571 1938.85C241.672 1960.98 245.09 1981.25 243.532 1996.22C242.755 2003.69 240.773 2009.53 237.697 2013.64C234.704 2017.65 230.493 2020.27 224.595 2021.11C218.562 2021.96 210.612 2020.96 200.375 2017.24C190.165 2013.54 177.913 2007.23 163.386 1997.77L159.02 2004.48C173.867 2014.15 186.68 2020.79 197.648 2024.77C208.588 2028.73 217.928 2030.13 225.717 2029.03C233.641 2027.9 239.787 2024.21 244.105 2018.43C248.339 2012.77 250.623 2005.37 251.489 1997.05C253.215 1980.46 249.422 1958.95 242.188 1936.4C234.926 1913.77 224.074 1889.7 211.333 1867.83L204.421 1871.86ZM16.2222 759.866L16.2222 6.01575L8.22217 6.01575L8.22217 759.866L16.2222 759.866ZM39.2415 2383.86C41.7107 2501.93 46.988 2581.03 54.4761 2631.23C58.2157 2656.3 62.5386 2674.39 67.4468 2686.58C72.2216 2698.44 78.1131 2706.13 85.9014 2707.66C93.7783 2709.2 101.114 2703.99 107.482 2696.86C114.078 2689.48 120.839 2678.7 127.687 2666.03C141.39 2640.69 156.028 2606.66 170.77 2574.6C185.617 2542.31 200.53 2512.1 214.938 2493.65C222.195 2484.36 228.856 2478.68 234.782 2476.77C237.626 2475.86 240.28 2475.82 242.866 2476.65C245.499 2477.51 248.348 2479.36 251.363 2482.69C257.475 2489.44 263.724 2501.66 269.809 2521.15C275.862 2540.54 281.636 2566.74 287.026 2601.07C297.807 2669.74 306.997 2770.56 313.949 2913.8L321.94 2913.42C314.983 2770.07 305.775 2668.92 294.93 2599.83C289.507 2565.29 283.661 2538.68 277.445 2518.77C271.261 2498.96 264.592 2485.39 257.295 2477.32C253.605 2473.25 249.626 2470.43 245.329 2469.04C240.985 2467.64 236.605 2467.78 232.333 2469.15C224.024 2471.83 216.118 2479.14 208.633 2488.73C193.555 2508.04 178.281 2539.11 163.501 2571.25C148.617 2603.63 134.189 2637.19 120.649 2662.23C113.876 2674.76 107.472 2684.87 101.516 2691.53C95.3317 2698.46 90.7299 2700.45 87.4403 2699.8C84.0622 2699.14 79.5589 2695.25 74.8682 2683.59C70.3109 2672.27 66.0977 2654.91 62.3885 2630.05C54.9789 2580.38 49.7076 2501.7 47.2398 2383.7L39.2415 2383.86ZM290.229 3426.29C281.484 3452.71 276.493 3473.67 274.3 3489.84C272.123 3505.9 272.644 3517.64 275.336 3525.34C276.696 3529.23 278.718 3532.4 281.534 3534.43C284.442 3536.53 287.816 3537.14 291.208 3536.54C297.628 3535.42 304.061 3530.05 309.623 3522.67C332.186 3492.75 349.618 3417.56 297.312 3342.26L290.741 3346.82C341.072 3419.28 323.722 3490.68 303.235 3517.86C298.034 3524.76 293.187 3528.07 289.829 3528.66C288.332 3528.92 287.192 3528.65 286.214 3527.94C285.144 3527.17 283.907 3525.61 282.888 3522.7C280.823 3516.79 280.106 3506.56 282.227 3490.92C284.333 3475.39 289.178 3454.92 297.824 3428.8L290.229 3426.29ZM78.7346 3387.72C65.9463 3520.85 85.2238 3646.74 107.572 3799.3C129.931 3951.93 155.443 4131.64 155.443 4373L163.443 4373C163.443 4131.04 137.859 3950.85 115.487 3798.14C93.1057 3645.36 74.0198 3520.47 86.6979 3388.49L78.7346 3387.72Z" fill="#FB5A14"/>
<path d="M16.3594 750.916L12.3594 750.916L12.3594 750.951L12.36 750.987L16.3594 750.916ZM67.3697 970.796L65.4977 974.331L65.8081 974.495L66.1425 974.603L67.3697 970.796ZM180.589 939.617L177.971 936.593L180.589 939.617ZM256.033 908.747L252.694 910.949L256.033 908.747ZM113.719 1157.87L109.722 1157.7L113.719 1157.87ZM86.247 1631.9L87.4544 1635.71L86.247 1631.9ZM47.111 2355.55L43.1119 2355.63L47.111 2355.55ZM319.452 2879.09L315.456 2879.28L319.452 2879.09ZM295.74 3386.92L299.536 3388.18L295.74 3386.92ZM295.74 3304.9L299.021 3302.61L295.74 3304.9ZM86.247 3347.95L90.2296 3348.32L86.247 3347.95ZM312.499 4224.86C314.26 4223.53 314.605 4221.02 313.271 4219.26C311.936 4217.5 309.427 4217.15 307.667 4218.49L312.499 4224.86ZM20.3594 6.01575C20.3594 3.80661 18.5685 2.01575 16.3594 2.01575C14.1502 2.01575 12.3594 3.80661 12.3594 6.01575L20.3594 6.01575ZM12.36 750.987C13.9873 842.53 17.7805 893.257 25.7974 923.499C29.8352 938.73 35.0112 949.051 41.7302 956.83C48.4336 964.591 56.4302 969.529 65.4977 974.331L69.2417 967.261C60.4127 962.585 53.492 958.208 47.7844 951.601C42.0924 945.011 37.3637 935.909 33.5303 921.449C25.8048 892.306 21.9893 842.571 20.3587 750.845L12.36 750.987ZM66.1425 974.603C74.8699 977.416 85.9483 977.193 97.4251 975.421C108.998 973.635 121.427 970.199 133.102 966.191C144.788 962.178 155.814 957.558 164.604 953.355C173.234 949.229 180.125 945.31 183.208 942.641L177.971 936.593C175.803 938.47 169.836 941.986 161.153 946.138C152.63 950.213 141.889 954.715 130.504 958.624C119.106 962.537 107.16 965.824 96.2046 967.515C85.1534 969.221 75.5512 969.231 68.5968 966.989L66.1425 974.603ZM183.208 942.641C187.064 939.301 190.871 935.905 194.589 932.592C198.316 929.271 201.952 926.035 205.506 922.978C212.644 916.839 219.292 911.565 225.42 907.929C231.611 904.255 236.77 902.56 241.038 902.869C245.004 903.156 248.926 905.237 252.694 910.949L259.372 906.544C254.573 899.268 248.612 895.396 241.615 894.89C234.919 894.405 228.035 897.075 221.338 901.049C214.579 905.06 207.494 910.716 200.29 916.912C196.673 920.023 192.986 923.305 189.267 926.62C185.539 929.942 181.777 933.298 177.971 936.593L183.208 942.641ZM252.694 910.949C255.576 915.319 258.342 922.104 260.864 930.912C263.367 939.657 265.558 950.138 267.401 961.722C271.085 984.887 273.336 1012.22 273.949 1038.41C274.563 1064.63 273.53 1089.52 270.706 1107.83C269.289 1117.02 267.456 1124.3 265.285 1129.22C264.198 1131.68 263.121 1133.33 262.148 1134.32C261.215 1135.27 260.564 1135.45 260.159 1135.46L260.48 1143.46C263.451 1143.34 265.921 1141.9 267.861 1139.92C269.761 1137.98 271.308 1135.38 272.603 1132.45C275.195 1126.58 277.157 1118.49 278.613 1109.05C281.536 1090.09 282.566 1064.68 281.947 1038.23C281.328 1011.75 279.052 984.046 275.301 960.466C273.426 948.677 271.174 937.859 268.555 928.711C265.954 919.626 262.92 911.924 259.372 906.544L252.694 910.949ZM260.159 1135.46C259.271 1135.5 257.848 1135.24 255.76 1134.42C253.721 1133.62 251.322 1132.39 248.572 1130.77C243.061 1127.52 236.549 1122.95 229.278 1117.77C214.901 1107.54 197.703 1095.04 181.062 1087.41C164.598 1079.86 147.091 1076.36 133.254 1086.66C119.722 1096.74 111.396 1118.89 109.722 1157.7L117.715 1158.04C119.378 1119.48 127.67 1100.79 138.032 1093.08C148.089 1085.59 161.751 1087.36 177.728 1094.68C193.527 1101.93 210.04 1113.9 224.639 1124.29C231.857 1129.43 238.65 1134.21 244.509 1137.66C247.444 1139.39 250.247 1140.85 252.833 1141.87C255.369 1142.86 257.992 1143.56 260.48 1143.46L260.159 1135.46ZM315.456 2879.28C327.726 3131.26 328.347 3276.05 291.944 3385.66L299.536 3388.18C336.501 3276.87 335.697 3130.47 323.447 2878.89L315.456 2879.28ZM299.021 3302.61C292.055 3292.62 277.066 3272.36 258.053 3252.05C239.111 3231.82 215.843 3211.19 192.289 3200.87C180.469 3195.69 168.337 3193 156.522 3194.47C144.617 3195.96 133.393 3201.63 123.437 3212.52C103.76 3234.06 88.9674 3276.06 82.2645 3347.57L90.2296 3348.32C96.9054 3277.1 111.54 3237.4 129.343 3217.92C138.126 3208.31 147.654 3203.64 157.513 3202.41C167.463 3201.17 178.108 3203.39 189.078 3208.19C211.106 3217.85 233.47 3237.5 252.213 3257.52C270.884 3277.46 285.633 3297.39 292.458 3307.19L299.021 3302.61ZM166.237 1974.08C151.267 1964.36 137.656 1959.79 125.307 1960.16C112.846 1960.52 102.193 1965.9 93.2285 1975.01C75.5842 1992.95 64.0731 2025.79 56.4728 2065.94C41.2076 2146.58 41.1141 2260.42 43.1119 2355.63L51.1102 2355.46C49.1101 2260.14 49.2469 2147.12 64.3332 2067.43C71.9086 2027.41 83.1035 1996.72 98.9323 1980.62C106.704 1972.72 115.48 1968.45 125.543 1968.15C135.719 1967.85 147.729 1971.6 161.881 1980.79L166.237 1974.08ZM85.0397 1628.09C72.5026 1632.05 63.6518 1637.31 58.4106 1644.06C53.0284 1650.99 51.8321 1659 53.6096 1667.43C55.3523 1675.69 59.9552 1684.46 66.2543 1693.48C72.5833 1702.54 80.8147 1712.12 90.1079 1722.04C108.591 1741.75 131.944 1763.45 153.316 1785.07C174.881 1806.88 194.656 1828.82 206.878 1849.73L213.785 1845.7C201.013 1823.85 180.607 1801.29 159.005 1779.44C137.209 1757.39 114.406 1736.26 95.9444 1716.57C86.7652 1706.77 78.8268 1697.51 72.8133 1688.9C66.7699 1680.24 62.8577 1672.51 61.4375 1665.78C60.0521 1659.21 61.0451 1653.71 64.7292 1648.97C68.5541 1644.04 75.6465 1639.45 87.4544 1635.71L85.0397 1628.09ZM109.722 1157.7C97.8752 1432.38 119.506 1590.67 151.639 1675.78C167.695 1718.3 186.58 1743.11 205.772 1754.74C225.26 1766.56 244.62 1764.5 260.229 1754.4C275.632 1744.43 287.259 1726.75 292.375 1707.26C297.502 1687.72 296.215 1665.88 285.113 1647.56C273.951 1629.15 253.232 1614.91 220.706 1610C188.277 1605.1 143.973 1609.43 85.0397 1628.09L87.4544 1635.71C145.744 1617.26 188.736 1613.26 219.511 1617.91C250.188 1622.54 268.58 1635.73 278.272 1651.71C288.024 1667.8 289.336 1687.32 284.637 1705.23C279.93 1723.17 269.311 1738.99 255.882 1747.68C242.659 1756.24 226.6 1758.01 209.918 1747.9C192.941 1737.61 174.904 1714.75 159.124 1672.95C127.584 1589.42 105.879 1432.47 117.715 1158.04L109.722 1157.7ZM206.878 1849.73C219.24 1870.88 229.753 1894.14 236.763 1915.92C243.802 1937.79 247.188 1957.8 245.645 1972.58C244.876 1979.95 242.914 1985.71 239.871 1989.77C236.911 1993.72 232.745 1996.31 226.902 1997.13C214.754 1998.85 195.27 1992.93 166.237 1974.08L161.881 1980.79C191.091 1999.75 212.761 2007.21 228.021 2005.06C235.882 2003.95 241.983 2000.29 246.271 1994.57C250.476 1988.96 252.743 1981.64 253.602 1973.42C255.314 1957.01 251.551 1935.75 244.379 1913.47C237.177 1891.09 226.417 1867.3 213.785 1845.7L206.878 1849.73ZM20.3594 750.916L20.3594 6.01575L12.3594 6.01575L12.3594 750.916L20.3594 750.916ZM43.1119 2355.63C45.5599 2472.3 50.7918 2550.47 58.2161 2600.07C61.9238 2624.84 66.2103 2642.72 71.0788 2654.78C75.8149 2666.5 81.664 2674.11 89.4006 2675.63C97.222 2677.15 104.504 2672 110.821 2664.95C117.364 2657.65 124.069 2647 130.858 2634.48C144.445 2609.43 158.958 2575.8 173.572 2544.12C188.293 2512.22 203.075 2482.38 217.355 2464.15C224.547 2454.97 231.145 2449.36 237.011 2447.48C239.827 2446.58 242.453 2446.54 245.013 2447.37C247.618 2448.21 250.437 2450.03 253.422 2453.32C259.474 2459.99 265.667 2472.05 271.698 2491.31C277.699 2510.46 283.422 2536.34 288.766 2570.27C299.453 2638.12 308.565 2737.74 315.456 2879.28L323.447 2878.89C316.55 2737.25 307.422 2637.29 296.669 2569.03C291.293 2534.9 285.496 2508.59 279.333 2488.91C273.2 2469.34 266.587 2455.92 259.345 2447.94C255.683 2443.91 251.734 2441.13 247.468 2439.75C243.156 2438.36 238.809 2438.5 234.57 2439.86C226.324 2442.5 218.481 2449.74 211.057 2459.22C196.105 2478.3 180.96 2509.01 166.308 2540.77C151.551 2572.76 137.248 2605.92 123.826 2630.66C117.112 2643.04 110.765 2653.03 104.864 2659.61C98.7365 2666.45 94.1836 2668.41 90.9346 2667.77C87.6009 2667.12 83.1446 2663.29 78.4967 2651.78C73.9811 2640.6 69.805 2623.45 66.1279 2598.88C58.7827 2549.81 53.5567 2472.06 51.1102 2355.46L43.1119 2355.63ZM291.944 3385.66C283.273 3411.77 278.323 3432.49 276.149 3448.47C273.99 3464.34 274.505 3475.95 277.179 3483.57C278.53 3487.43 280.539 3490.56 283.339 3492.58C286.23 3494.66 289.582 3495.26 292.949 3494.67C299.323 3493.56 305.708 3488.25 311.225 3480.95C333.608 3451.36 350.891 3377.04 299.021 3302.61L292.458 3307.19C342.342 3378.77 325.142 3449.29 304.845 3476.13C299.692 3482.94 294.894 3486.21 291.574 3486.79C290.095 3487.05 288.971 3486.77 288.009 3486.08C286.957 3485.33 285.735 3483.8 284.728 3480.93C282.685 3475.1 281.973 3465.01 284.076 3449.55C286.163 3434.21 290.965 3413.99 299.536 3388.18L291.944 3385.66ZM82.2645 3347.57C68.9113 3490.04 89.253 3735.94 130.749 3932.66C151.489 4030.99 177.597 4117.44 207.639 4172.63C222.621 4200.16 238.88 4220.48 256.437 4230.33C265.303 4235.3 274.563 4237.64 284.107 4236.8C293.634 4235.96 303.116 4231.98 312.499 4224.86L307.667 4218.49C299.209 4224.9 291.123 4228.15 283.404 4228.83C275.703 4229.51 268.039 4227.66 260.351 4223.35C244.802 4214.63 229.437 4195.95 214.665 4168.81C185.2 4114.68 159.28 4029.16 138.577 3931.01C97.1856 3734.79 76.975 3489.73 90.2296 3348.32L82.2645 3347.57Z" fill="#2368D0"/>
</g>
<defs>
<filter id="filter0_f_170_2" x="0" y="-3.16144" width="337" height="4384.16" filterUnits="userSpaceOnUse" color-interpolation-filters="sRGB">
<feFlood flood-opacity="0" result="BackgroundImageFix"/>
<feBlend mode="normal" in="SourceGraphic" in2="BackgroundImageFix" result="shape"/>
<feGaussianBlur stdDeviation="2" result="effect1_foregroundBlur_170_2"/>
</filter>
</defs>
</svg>
