<svg width="341" height="4537" viewBox="0 0 341 4537" fill="none" xmlns="http://www.w3.org/2000/svg">
<g opacity="0.7" filter="url(#filter0_f_170_2)">
<path d="M10 791.765L4 791.765L4 791.816L4.00088 791.867L10 791.765ZM61.8369 1024.05L58.9432 1029.31L59.4174 1029.57L59.9306 1029.74L61.8369 1024.05ZM176.891 991.112L172.877 986.653L176.891 991.112ZM253.558 958.501L248.491 961.715L253.558 958.501ZM108.937 1221.68L102.942 1221.43L108.937 1221.68ZM81.0201 1722.45L82.896 1728.15L81.0201 1722.45ZM41.25 2486.93L47.2488 2486.81L41.25 2486.93ZM318.004 3040.01L323.997 3039.72L318.004 3040.01ZM293.908 3576.49L299.623 3578.32L293.908 3576.49ZM293.908 3489.84L298.891 3486.5L293.908 3489.84ZM81.0201 3535.32L75.0458 3534.76L81.0201 3535.32ZM75.4835 4369.99C74.2066 4373.05 75.6503 4376.57 78.7081 4377.84C81.7659 4379.12 85.2798 4377.68 86.5568 4374.62L75.4835 4369.99ZM16 4.83856C16 1.52485 13.3137 -1.16144 10 -1.16144C6.68629 -1.16144 4 1.52485 4 4.83856L16 4.83856ZM4.00088 791.867C5.6539 888.539 9.50424 942.321 17.7061 974.484C21.8467 990.722 27.1939 1001.88 34.2432 1010.37C41.281 1018.84 49.6604 1024.2 58.9432 1029.31L64.7306 1018.79C55.8269 1013.89 49.0473 1009.41 43.473 1002.7C37.9102 996.005 33.1922 986.649 29.334 971.519C21.5383 940.949 17.6567 888.6 15.9991 791.662L4.00088 791.867ZM59.9306 1029.74C69.273 1032.87 80.931 1032.57 92.7099 1030.68C104.637 1028.77 117.395 1025.1 129.331 1020.84C141.286 1016.57 152.564 1011.66 161.564 1007.19C170.326 1002.83 177.554 998.588 180.905 995.572L172.877 986.653C170.892 988.439 165.055 992.05 156.223 996.44C147.63 1000.71 136.787 1005.44 125.297 1009.54C113.787 1013.65 101.775 1017.08 90.8086 1018.84C79.6944 1020.62 70.3367 1020.57 63.7433 1018.36L59.9306 1029.74ZM180.905 995.572C184.837 992.033 188.715 988.436 192.491 984.938C196.28 981.428 199.963 978.02 203.561 974.803C210.8 968.331 217.451 962.855 223.525 959.109C229.702 955.298 234.486 953.782 238.162 954.059C241.366 954.3 244.867 956.002 248.491 961.715L258.624 955.286C253.542 947.277 246.999 942.69 239.063 942.093C231.598 941.531 224.144 944.627 217.224 948.896C210.201 953.228 202.897 959.299 195.562 965.857C191.873 969.156 188.114 972.635 184.336 976.135C180.545 979.647 176.732 983.183 172.877 986.653L180.905 995.572ZM248.491 961.715C251.283 966.115 254.041 973.092 256.59 982.346C259.111 991.504 261.326 1002.51 263.193 1014.71C266.924 1039.1 269.208 1067.91 269.829 1095.52C270.452 1123.17 269.401 1149.36 266.551 1168.58C265.117 1178.24 263.279 1185.77 261.155 1190.77C260.09 1193.28 259.093 1194.81 258.309 1195.64C257.578 1196.41 257.375 1196.25 257.664 1196.23L258.163 1208.22C261.882 1208.07 264.851 1206.19 267.04 1203.87C269.175 1201.61 270.844 1198.65 272.2 1195.46C274.917 1189.07 276.934 1180.36 278.421 1170.34C281.41 1150.18 282.456 1123.24 281.826 1095.25C281.195 1067.22 278.878 1037.89 275.055 1012.89C273.143 1000.4 270.842 988.906 268.159 979.161C265.502 969.512 262.367 961.185 258.624 955.286L248.491 961.715ZM257.664 1196.23C257.196 1196.25 256.072 1196.11 254.063 1195.29C252.132 1194.5 249.796 1193.26 247.046 1191.57C241.531 1188.19 234.983 1183.42 227.581 1177.94C213.028 1167.17 195.381 1153.83 178.259 1145.67C161.404 1137.63 142.578 1133.46 127.544 1145.1C120.224 1150.76 114.534 1159.7 110.46 1172.09C106.386 1184.47 103.803 1200.68 102.942 1221.43L114.932 1221.93C115.767 1201.81 118.253 1186.8 121.86 1175.83C125.467 1164.87 130.069 1158.32 134.889 1154.59C144.137 1147.43 156.985 1148.82 173.096 1156.5C188.94 1164.05 205.55 1176.57 220.443 1187.59C227.764 1193 234.736 1198.1 240.776 1201.8C243.804 1203.66 246.754 1205.26 249.522 1206.39C252.212 1207.49 255.2 1208.35 258.163 1208.22L257.664 1196.23ZM312.01 3040.29C324.482 3306.56 325.078 3459.2 288.192 3574.66L299.623 3578.32C337.294 3460.39 336.442 3305.42 323.997 3039.72L312.01 3040.29ZM298.891 3486.5C291.786 3475.9 276.547 3454.45 257.205 3432.95C237.977 3411.58 214.183 3389.57 189.907 3378.52C177.7 3372.96 164.988 3370 152.482 3371.63C139.835 3373.27 128.01 3379.54 117.618 3391.33C97.194 3414.5 82.0427 3459.29 75.0458 3534.76L86.9945 3535.87C93.9561 3460.78 108.891 3419.38 126.621 3399.26C135.306 3389.41 144.575 3384.76 154.031 3383.53C163.628 3382.28 174.029 3384.48 184.936 3389.44C206.889 3399.43 229.331 3419.91 248.284 3440.98C267.125 3461.92 282.015 3482.88 288.924 3493.18L298.891 3486.5ZM163.449 2082.51C148.043 2072.11 133.791 2067.05 120.649 2067.46C107.327 2067.86 96.0284 2073.86 86.6542 2083.76C68.3338 2103.13 56.5788 2138.27 48.8544 2180.69C33.3083 2266.06 33.2214 2386.48 35.2512 2487.05L47.2488 2486.81C45.2159 2386.09 45.363 2266.84 60.6602 2182.84C68.3574 2140.57 79.6764 2108.6 95.3715 2092.01C103.005 2083.94 111.449 2079.74 121.017 2079.45C130.765 2079.15 142.549 2082.88 156.736 2092.46L163.449 2082.51ZM79.1443 1716.75C66.1938 1721.02 56.7803 1726.75 51.1362 1734.3C45.314 1742.1 44.0741 1751.05 45.951 1760.31C47.7837 1769.34 52.5963 1778.81 59.0555 1788.43C65.5546 1798.1 73.9832 1808.3 83.4533 1818.8C102.241 1839.64 126.097 1862.69 147.719 1885.42C169.622 1908.46 189.58 1931.5 201.885 1953.38L212.345 1947.5C199.251 1924.22 178.378 1900.25 156.414 1877.15C134.168 1853.76 111.121 1831.57 92.3651 1810.77C83.0633 1800.45 75.0601 1790.73 69.0166 1781.74C62.9334 1772.68 59.0929 1764.73 57.7114 1757.92C56.3742 1751.33 57.3591 1746.02 60.7501 1741.49C64.3191 1736.71 71.1071 1732.03 82.896 1728.15L79.1443 1716.75ZM102.942 1221.43C90.901 1511.66 112.868 1679.14 145.635 1769.36C161.997 1814.41 181.361 1841.07 201.39 1853.69C221.925 1866.63 242.49 1864.38 258.962 1853.29C275.087 1842.44 287.102 1823.35 292.375 1802.46C297.663 1781.51 296.368 1757.98 284.816 1738.17C273.161 1718.18 251.559 1702.84 217.981 1697.56C184.578 1692.32 139.201 1696.99 79.1443 1716.75L82.896 1728.15C141.963 1708.71 185.296 1704.58 216.12 1709.42C246.769 1714.23 264.913 1727.86 274.45 1744.21C284.091 1760.75 285.435 1780.92 280.74 1799.52C276.029 1818.18 265.437 1834.47 252.263 1843.34C239.435 1851.97 224.008 1853.76 207.787 1843.54C191.06 1833 172.906 1809.3 156.915 1765.27C124.977 1677.33 102.906 1511.79 114.932 1221.93L102.942 1221.43ZM201.885 1953.38C214.391 1975.62 225.026 2000.08 232.113 2022.97C239.24 2045.99 242.611 2066.89 241.074 2082.2C240.308 2089.83 238.369 2095.59 235.519 2099.54C232.798 2103.31 229.032 2105.75 223.651 2106.54C218.054 2107.36 210.423 2106.43 200.293 2102.62C190.206 2098.83 178.006 2092.33 163.449 2082.51L156.736 2092.46C171.773 2102.6 184.825 2109.63 196.073 2113.85C207.279 2118.06 217.066 2119.64 225.395 2118.41C233.94 2117.16 240.607 2113 245.251 2106.56C249.767 2100.3 252.125 2092.25 253.014 2083.4C254.786 2065.75 250.892 2043.05 243.577 2019.43C236.222 1995.67 225.238 1970.43 212.345 1947.5L201.885 1953.38ZM16 791.765L16 4.83856L4 4.83856L4 791.765L16 791.765ZM35.2512 2487.05C37.7391 2610.31 43.0569 2692.97 50.6162 2745.47C54.3895 2771.68 58.7663 2790.72 63.7823 2803.63C66.2903 2810.09 69.0671 2815.3 72.2246 2819.16C75.4038 2823.05 79.2358 2825.87 83.81 2826.8C92.9982 2828.66 101.099 2822.32 107.509 2814.89C114.299 2807.01 121.187 2795.61 128.101 2782.36C141.941 2755.83 156.732 2720.21 171.554 2686.81C186.528 2653.06 201.475 2621.73 215.844 2602.66C223.119 2593.01 229.53 2587.5 234.883 2585.72C237.365 2584.89 239.567 2584.88 241.699 2585.59C243.914 2586.34 246.506 2588.02 249.395 2591.32C255.288 2598.07 261.499 2610.53 267.611 2630.81C273.677 2650.95 279.479 2678.21 284.904 2714.01C295.752 2785.6 305.008 2890.78 312.01 3040.29L323.997 3039.72C316.988 2890.07 307.708 2784.41 296.768 2712.21C291.299 2676.12 285.395 2648.24 279.101 2627.35C272.852 2606.61 266.048 2592.15 258.433 2583.43C254.566 2579 250.28 2575.81 245.513 2574.22C240.663 2572.59 235.779 2572.77 231.09 2574.33C222.104 2577.32 213.839 2585.39 206.261 2595.44C190.924 2615.79 175.459 2648.42 160.585 2681.94C145.56 2715.8 131.068 2750.73 117.462 2776.81C110.652 2789.86 104.278 2800.26 98.4216 2807.05C92.1867 2814.28 88.2602 2815.46 86.1986 2815.04C85.1479 2814.82 83.5494 2814.05 81.5123 2811.56C79.4534 2809.04 77.2281 2805.1 74.9679 2799.28C70.4478 2787.65 66.2249 2769.68 62.4938 2743.76C55.0443 2692.02 49.7347 2609.97 47.2488 2486.81L35.2512 2487.05ZM288.192 3574.66C279.362 3602.31 274.304 3624.3 272.078 3641.3C269.874 3658.14 270.359 3670.7 273.197 3679.11C274.632 3683.37 276.833 3687.05 280.087 3689.48C283.501 3692.03 287.498 3692.77 291.444 3692.06C298.723 3690.74 305.591 3684.59 311.254 3676.81C334.42 3644.97 351.995 3565.72 298.891 3486.5L288.924 3493.18C339.223 3568.21 321.756 3641.98 301.55 3669.75C296.37 3676.87 291.874 3679.79 289.303 3680.25C288.323 3680.43 287.772 3680.24 287.271 3679.87C286.61 3679.38 285.529 3678.13 284.567 3675.28C282.611 3669.48 281.849 3659.11 283.976 3642.86C286.081 3626.78 290.932 3605.52 299.623 3578.32L288.192 3574.66ZM75.0458 3534.76C62.1405 3673.96 89.4775 3819.17 106.2 3960.69C122.98 4102.69 129.186 4241.39 75.4835 4369.99L86.5568 4374.62C141.547 4242.94 134.924 4101.51 118.117 3959.28C101.253 3816.56 74.2433 3673.41 86.9945 3535.87L75.0458 3534.76Z" fill="#FD0E0E"/>
<path d="M14.2222 786.485L8.22217 786.485L8.22217 786.536L8.22305 786.587L14.2222 786.485ZM65.6751 1016.85L62.7833 1022.11L63.2573 1022.37L63.7702 1022.54L65.6751 1016.85ZM179.877 984.186L175.865 979.725L179.877 984.186ZM255.975 951.844L250.91 955.06L255.975 951.844ZM112.426 1212.85L106.432 1212.6L112.426 1212.85ZM84.7162 1709.49L86.5906 1715.19L84.7162 1709.49ZM45.2407 2467.65L51.2394 2467.53L45.2407 2467.65ZM319.944 3016.16L325.938 3015.88L319.944 3016.16ZM296.027 3548.21L290.312 3546.39L296.027 3548.21ZM296.027 3462.28L301.009 3458.94L296.027 3462.28ZM84.7162 3507.38L78.7419 3506.83L84.7162 3507.38ZM155.443 4527C155.443 4530.31 158.129 4533 161.443 4533C164.757 4533 167.443 4530.31 167.443 4527L155.443 4527ZM20.2222 6.05725C20.2222 2.74354 17.5359 0.057251 14.2222 0.057251C10.9085 0.057251 8.22217 2.74354 8.22217 6.05725L20.2222 6.05725ZM8.22305 786.587C9.8638 882.46 13.6855 935.804 21.8284 967.709C25.9396 983.817 31.25 994.896 38.2532 1003.32C45.2447 1011.72 53.5681 1017.04 62.7833 1022.11L68.5669 1011.6C59.7303 1006.73 53.007 1002.29 47.4798 995.644C41.9643 989.012 37.2841 979.741 33.4557 964.741C25.7196 934.43 21.8666 882.521 20.2213 786.382L8.22305 786.587ZM63.7702 1022.54C73.0526 1025.65 84.6318 1025.36 96.3256 1023.48C108.167 1021.58 120.834 1017.94 132.683 1013.71C144.551 1009.48 155.747 1004.61 164.682 1000.17C173.378 995.854 180.558 991.643 183.889 988.647L175.865 979.725C173.9 981.492 168.111 985.071 159.344 989.425C150.816 993.66 140.055 998.345 128.652 1002.41C117.229 1006.49 105.308 1009.89 94.4259 1011.63C83.3962 1013.4 74.1154 1013.35 67.58 1011.16L63.7702 1022.54ZM183.889 988.647C187.792 985.138 191.642 981.57 195.39 978.101C199.15 974.62 202.806 971.24 206.377 968.05C213.562 961.632 220.161 956.204 226.186 952.49C232.315 948.713 237.055 947.215 240.691 947.488C243.856 947.726 247.319 949.405 250.91 955.06L261.041 948.627C255.99 940.674 249.484 936.116 241.591 935.522C234.169 934.964 226.761 938.04 219.89 942.275C212.916 946.573 205.663 952.597 198.382 959.101C194.72 962.373 190.988 965.823 187.238 969.294C183.476 972.777 179.691 976.284 175.865 979.725L183.889 988.647ZM250.91 955.06C253.677 959.417 256.414 966.331 258.943 975.507C261.445 984.586 263.643 995.5 265.495 1007.6C269.199 1031.78 271.465 1060.35 272.082 1087.73C272.7 1115.15 271.657 1141.12 268.829 1160.18C267.406 1169.76 265.583 1177.22 263.477 1182.17C262.421 1184.66 261.434 1186.17 260.661 1186.99C259.942 1187.75 259.75 1187.58 260.05 1187.56L260.549 1199.55C264.254 1199.4 267.21 1197.53 269.388 1195.22C271.513 1192.97 273.173 1190.04 274.52 1186.87C277.219 1180.52 279.223 1171.88 280.699 1161.94C283.667 1141.95 284.705 1115.22 284.079 1087.46C283.453 1059.66 281.153 1030.57 277.357 1005.78C275.46 993.387 273.176 981.986 270.511 972.319C267.874 962.748 264.76 954.484 261.041 948.627L250.91 955.06ZM260.05 1187.56C259.594 1187.58 258.484 1187.44 256.492 1186.63C254.578 1185.85 252.262 1184.62 249.534 1182.95C244.061 1179.6 237.564 1174.86 230.216 1169.43C215.772 1158.75 198.252 1145.52 181.252 1137.42C164.519 1129.45 145.813 1125.3 130.87 1136.86C123.595 1142.48 117.942 1151.36 113.897 1163.65C109.85 1175.94 107.286 1192.02 106.432 1212.6L118.421 1213.1C119.249 1193.15 121.717 1178.27 125.295 1167.4C128.873 1156.53 133.436 1150.04 138.211 1146.35C147.37 1139.27 160.104 1140.64 176.093 1148.25C191.814 1155.74 208.298 1168.15 223.082 1179.08C230.348 1184.45 237.271 1189.51 243.268 1193.18C246.274 1195.02 249.204 1196.61 251.955 1197.74C254.628 1198.83 257.6 1199.68 260.549 1199.55L260.05 1187.56ZM313.951 3016.44C326.33 3280.52 326.921 3431.88 290.312 3546.39L301.742 3550.04C339.138 3433.08 338.29 3279.38 325.938 3015.88L313.951 3016.44ZM301.009 3458.94C293.955 3448.42 278.828 3427.15 259.628 3405.82C240.54 3384.62 216.917 3362.79 192.814 3351.83C180.692 3346.32 168.067 3343.38 155.644 3344.99C143.08 3346.63 131.333 3352.85 121.012 3364.55C100.727 3387.54 85.6872 3431.98 78.7419 3506.83L90.6906 3507.93C97.6003 3433.47 112.424 3392.42 130.011 3372.49C138.625 3362.72 147.815 3358.11 157.192 3356.89C166.708 3355.65 177.024 3357.83 187.845 3362.75C209.628 3372.66 231.898 3392.96 250.71 3413.85C269.409 3434.62 284.187 3455.4 291.044 3465.62L301.009 3458.94ZM166.558 2066.53C151.261 2056.21 137.106 2051.19 124.051 2051.59C110.815 2052 99.5898 2057.94 90.2781 2067.78C72.0826 2087 60.4126 2121.86 52.7452 2163.93C37.3132 2248.6 37.2272 2368.04 39.2419 2467.77L51.2394 2467.53C49.2216 2367.64 49.3679 2249.39 64.5507 2166.08C72.1907 2124.16 83.4238 2092.47 98.9918 2076.03C106.562 2068.03 114.933 2063.88 124.418 2063.59C134.083 2063.29 145.771 2066.98 159.849 2076.48L166.558 2066.53ZM82.8419 1703.79C69.9837 1708.01 60.63 1713.7 55.0195 1721.21C49.2301 1728.95 47.998 1737.85 49.8635 1747.04C51.6847 1756.01 56.4659 1765.41 62.8787 1774.95C69.3315 1784.55 77.6994 1794.66 87.1 1805.08C105.749 1825.74 129.431 1848.6 150.89 1871.15C172.631 1893.99 192.438 1916.84 204.648 1938.54L215.106 1932.65C202.105 1909.55 181.384 1885.78 159.582 1862.87C137.499 1839.67 114.625 1817.66 96.0084 1797.04C86.7762 1786.81 78.834 1777.17 72.8372 1768.25C66.8005 1759.27 62.9927 1751.39 61.6236 1744.65C60.2987 1738.13 61.2749 1732.88 64.6304 1728.39C68.1648 1723.67 74.8926 1719.03 86.5906 1715.19L82.8419 1703.79ZM106.432 1212.6C94.4795 1500.43 116.283 1666.54 148.812 1756.03C165.054 1800.71 184.28 1827.16 204.173 1839.68C224.571 1852.53 245 1850.29 261.363 1839.29C277.38 1828.52 289.311 1809.57 294.548 1788.84C299.799 1768.06 298.514 1744.71 287.04 1725.05C275.462 1705.21 254.007 1689.99 220.669 1684.76C187.505 1679.55 142.457 1684.18 82.8419 1703.79L86.5906 1715.19C145.216 1695.91 188.221 1691.81 218.809 1696.61C249.222 1701.38 267.219 1714.89 276.676 1731.1C286.237 1747.48 287.572 1767.47 282.914 1785.9C278.241 1804.4 267.733 1820.55 254.668 1829.33C241.948 1837.88 226.652 1839.66 210.566 1829.53C193.975 1819.08 175.96 1795.59 160.09 1751.93C128.392 1664.73 106.484 1500.56 118.421 1213.1L106.432 1212.6ZM204.648 1938.54C217.06 1960.59 227.615 1984.85 234.648 2007.54C241.721 2030.37 245.065 2051.09 243.54 2066.26C242.781 2073.82 240.858 2079.52 238.036 2083.43C235.344 2087.16 231.615 2089.57 226.285 2090.35C220.738 2091.17 213.171 2090.24 203.12 2086.47C193.112 2082.71 181.005 2076.27 166.558 2066.53L159.849 2076.48C174.776 2086.54 187.734 2093.51 198.903 2097.7C210.03 2101.88 219.751 2103.44 228.027 2102.23C236.519 2100.98 243.147 2096.85 247.765 2090.45C252.255 2084.23 254.598 2076.24 255.48 2067.46C257.24 2049.94 253.372 2027.43 246.111 2003.99C238.809 1980.43 227.905 1955.39 215.106 1932.65L204.648 1938.54ZM20.2222 786.485L20.2222 6.05725L8.22217 6.05725L8.22217 786.485L20.2222 786.485ZM39.2419 2467.77C41.7113 2590.01 46.9898 2671.99 54.4936 2724.07C58.2392 2750.06 62.5843 2768.94 67.5653 2781.75C70.0558 2788.16 72.8144 2793.34 75.953 2797.17C79.1135 2801.03 82.9254 2803.84 87.4776 2804.76C96.6211 2806.62 104.676 2800.31 111.041 2792.93C117.784 2785.12 124.624 2773.8 131.487 2760.66C145.225 2734.36 159.908 2699.02 174.619 2665.9C189.483 2632.43 204.317 2601.36 218.576 2582.46C225.795 2572.89 232.151 2567.43 237.452 2565.67C239.908 2564.85 242.085 2564.84 244.192 2565.55C246.382 2566.28 248.949 2567.94 251.812 2571.22C257.655 2577.9 263.816 2590.24 269.883 2610.36C275.903 2630.33 281.661 2657.36 287.046 2692.86C297.813 2763.86 307 2868.17 313.951 3016.44L325.938 3015.88C318.98 2867.46 309.769 2762.67 298.91 2691.06C293.481 2655.26 287.62 2627.62 281.372 2606.9C275.169 2586.33 268.412 2571.97 260.846 2563.32C257.004 2558.92 252.744 2555.76 248.003 2554.17C243.18 2552.55 238.323 2552.73 233.662 2554.28C224.73 2557.26 216.518 2565.26 208.995 2575.23C193.768 2595.42 178.415 2627.79 163.652 2661.03C148.737 2694.61 134.354 2729.25 120.85 2755.11C114.091 2768.05 107.766 2778.36 101.957 2785.09C95.77 2792.26 91.8871 2793.41 89.8642 2793C88.8331 2792.79 87.2547 2792.03 85.2375 2789.57C83.1984 2787.08 80.9919 2783.17 78.7496 2777.41C74.2652 2765.87 70.0742 2748.06 66.371 2722.36C58.9771 2671.05 53.7069 2589.68 51.2394 2467.53L39.2419 2467.77ZM290.312 3546.39C281.546 3573.8 276.525 3595.61 274.314 3612.48C272.126 3629.19 272.607 3641.65 275.427 3650.01C276.854 3654.23 279.044 3657.89 282.284 3660.31C285.683 3662.85 289.662 3663.59 293.588 3662.88C300.83 3661.57 307.656 3655.46 313.279 3647.74C336.286 3616.14 353.732 3537.52 301.009 3458.94L291.044 3465.62C340.958 3540.02 323.621 3613.15 303.578 3640.67C298.439 3647.73 293.986 3650.61 291.449 3651.07C290.486 3651.24 289.951 3651.06 289.464 3650.7C288.818 3650.22 287.749 3648.99 286.797 3646.17C284.859 3640.43 284.102 3630.16 286.213 3614.04C288.301 3598.1 293.116 3577.02 301.742 3550.04L290.312 3546.39ZM78.7419 3506.83C65.9316 3644.88 85.2474 3775.43 107.589 3933.31C129.945 4091.31 155.443 4277.26 155.443 4527L167.443 4527C167.443 4276.38 141.844 4089.75 119.471 3931.63C97.0821 3773.41 78.0345 3644.33 90.6906 3507.93L78.7419 3506.83Z" fill="#FB5A14"/>
<path d="M18.3594 777.219L12.3594 777.219L12.3594 777.27L12.3603 777.322L18.3594 777.219ZM69.3697 1004.85L66.4852 1010.11L66.9585 1010.37L67.4705 1010.54L69.3697 1004.85ZM182.589 972.573L178.585 968.105L182.589 972.573ZM258.033 940.614L252.973 943.838L258.033 940.614ZM115.719 1198.52L109.724 1198.27L115.719 1198.52ZM88.247 1689.26L90.1158 1694.96L88.247 1689.26ZM49.111 2438.42L43.1123 2438.54L49.111 2438.42ZM321.452 2980.42L315.458 2980.7L321.452 2980.42ZM297.74 3506.16L303.453 3507.99L297.74 3506.16ZM297.74 3421.24L302.717 3417.89L297.74 3421.24ZM88.247 3465.81L94.2226 3466.35L88.247 3465.81ZM315.787 4375.06C318.394 4373.02 318.849 4369.24 316.803 4366.64C314.757 4364.03 310.986 4363.57 308.379 4365.62L315.787 4375.06ZM24.3594 6.05725C24.3594 2.74354 21.6731 0.057251 18.3594 0.057251C15.0457 0.057251 12.3594 2.74354 12.3594 6.05725L24.3594 6.05725ZM12.3603 777.322C13.9869 872.054 17.7754 924.775 25.8514 956.314C29.9294 972.239 35.1986 983.198 42.1502 991.53C49.0892 999.846 57.3486 1005.1 66.4852 1010.11L72.2541 999.59C63.4943 994.787 56.8364 990.401 51.3644 983.842C45.905 977.299 41.2695 968.15 37.4763 953.337C29.8098 923.397 25.9897 872.115 24.3585 777.116L12.3603 777.322ZM67.4705 1010.54C76.681 1013.62 88.1667 1013.32 99.7617 1011.47C111.504 1009.59 124.064 1006 135.812 1001.82C147.58 997.637 158.681 992.822 167.541 988.437C176.161 984.169 183.285 980.007 186.594 977.041L178.585 968.105C176.642 969.846 170.909 973.379 162.217 977.682C153.764 981.867 143.097 986.495 131.793 990.513C120.47 994.538 108.654 997.898 97.868 999.622C86.9349 1001.37 77.7401 1001.32 71.2689 999.16L67.4705 1010.54ZM186.594 977.041C190.463 973.572 194.281 970.046 197.996 966.619C201.725 963.179 205.348 959.84 208.888 956.688C216.01 950.346 222.55 944.986 228.52 941.319C234.592 937.589 239.283 936.112 242.878 936.382C246.003 936.616 249.423 938.266 252.973 943.838L263.093 937.39C258.076 929.516 251.612 925.003 243.775 924.416C236.407 923.863 229.055 926.906 222.239 931.094C215.32 935.344 208.127 941.298 200.908 947.726C197.277 950.959 193.577 954.369 189.859 957.799C186.129 961.24 182.378 964.705 178.585 968.105L186.594 977.041ZM252.973 943.838C255.71 948.134 258.42 954.957 260.926 964.021C263.406 972.988 265.585 983.769 267.42 995.718C271.091 1019.61 273.338 1047.84 273.95 1074.89C274.562 1101.98 273.528 1127.64 270.725 1146.46C269.315 1155.93 267.509 1163.29 265.425 1168.18C264.38 1170.63 263.406 1172.11 262.648 1172.91C261.943 1173.66 261.763 1173.48 262.071 1173.47L262.569 1185.46C266.252 1185.3 269.193 1183.45 271.361 1181.16C273.475 1178.93 275.125 1176.02 276.463 1172.89C279.143 1166.6 281.131 1158.05 282.594 1148.23C285.538 1128.47 286.567 1102.06 285.947 1074.62C285.326 1047.15 283.045 1018.39 279.281 993.896C277.4 981.648 275.135 970.379 272.492 960.822C269.876 951.362 266.786 943.187 263.093 937.39L252.973 943.838ZM262.071 1173.47C261.625 1173.48 260.53 1173.34 258.558 1172.54C256.664 1171.77 254.37 1170.56 251.666 1168.91C246.243 1165.6 239.803 1160.92 232.518 1155.55C218.2 1145 200.826 1131.92 183.968 1123.92C167.376 1116.04 148.814 1111.94 133.98 1123.37C126.755 1128.94 121.144 1137.72 117.129 1149.88C113.114 1162.03 110.571 1177.93 109.724 1198.27L121.714 1198.77C122.535 1179.07 124.98 1164.37 128.524 1153.64C132.068 1142.91 136.584 1136.51 141.306 1132.87C150.366 1125.89 162.973 1127.24 178.822 1134.76C194.404 1142.16 210.741 1154.42 225.4 1165.22C232.603 1170.52 239.468 1175.52 245.415 1179.15C248.396 1180.97 251.304 1182.55 254.034 1183.66C256.686 1184.74 259.638 1185.58 262.569 1185.46L262.071 1173.47ZM315.458 2980.7C327.731 3241.65 328.315 3391.2 292.026 3504.33L303.453 3507.99C340.533 3392.4 339.691 3240.5 327.445 2980.14L315.458 2980.7ZM302.717 3417.89C295.72 3407.5 280.676 3386.45 261.583 3365.34C242.601 3344.35 219.11 3322.74 195.163 3311.87C183.12 3306.41 170.581 3303.49 158.249 3305.08C145.775 3306.69 134.119 3312.85 123.891 3324.43C103.797 3347.2 88.9782 3391.19 82.2715 3465.27L94.2226 3466.35C100.895 3392.66 115.504 3352.07 132.888 3332.38C141.4 3322.73 150.495 3318.18 159.786 3316.98C169.219 3315.76 179.457 3317.92 190.205 3322.8C211.838 3332.61 233.979 3352.71 252.683 3373.39C271.275 3393.94 285.968 3414.5 292.762 3424.6L302.717 3417.89ZM169.406 2042C154.235 2031.8 140.194 2026.84 127.242 2027.23C114.111 2027.64 102.972 2033.52 93.7304 2043.24C75.6759 2062.25 64.1029 2096.72 56.5008 2138.29C41.1997 2221.97 41.1149 2340 43.1123 2438.54L55.1098 2438.3C53.1093 2339.6 53.2548 2222.76 68.3051 2140.45C75.8788 2099.04 87.0119 2067.74 102.43 2051.51C109.926 2043.62 118.214 2039.52 127.608 2039.23C137.181 2038.94 148.761 2042.58 162.712 2051.96L169.406 2042ZM86.3783 1683.56C73.6286 1687.74 64.3435 1693.36 58.7701 1700.79C53.0152 1708.47 51.7905 1717.29 53.6443 1726.39C55.4531 1735.26 60.2 1744.57 66.5597 1753.99C72.9597 1763.48 81.258 1773.48 90.5786 1783.77C109.067 1804.19 132.55 1826.79 153.821 1849.06C175.375 1871.63 195.006 1894.21 207.107 1915.64L217.556 1909.73C204.662 1886.9 184.114 1863.41 162.5 1840.77C140.603 1817.84 117.93 1796.1 99.4738 1775.72C90.3218 1765.61 82.4503 1756.09 76.5079 1747.28C70.5251 1738.41 66.7569 1730.64 65.4028 1723.99C64.0937 1717.56 65.0583 1712.41 68.3696 1707.99C71.8625 1703.34 78.5205 1698.76 90.1158 1694.96L86.3783 1683.56ZM109.724 1198.27C97.8746 1482.69 119.49 1646.84 151.745 1735.28C167.85 1779.44 186.919 1805.59 206.656 1817.98C226.892 1830.68 247.161 1828.47 263.395 1817.59C279.287 1806.94 291.126 1788.2 296.323 1767.7C301.533 1747.14 300.259 1724.04 288.87 1704.59C277.379 1684.97 256.093 1669.92 223.035 1664.75C190.149 1659.61 145.483 1664.19 86.3783 1683.56L90.1158 1694.96C148.234 1675.91 190.864 1671.87 221.181 1676.61C251.327 1681.32 269.152 1694.67 278.515 1710.66C287.981 1726.82 289.304 1746.55 284.69 1764.75C280.062 1783.01 269.655 1798.95 256.715 1807.62C244.118 1816.06 228.967 1817.81 213.034 1807.81C196.601 1797.5 178.749 1774.3 163.018 1731.17C131.6 1645.02 109.88 1482.82 121.714 1198.77L109.724 1198.27ZM207.107 1915.64C219.409 1937.42 229.871 1961.38 236.842 1983.81C243.852 2006.36 247.163 2026.81 245.654 2041.79C244.902 2049.25 242.999 2054.87 240.212 2058.71C237.553 2062.38 233.87 2064.76 228.593 2065.54C223.101 2066.34 215.605 2065.42 205.644 2061.7C195.726 2057.99 183.727 2051.63 169.406 2042L162.712 2051.96C177.513 2061.91 190.363 2068.79 201.439 2072.94C212.474 2077.07 222.118 2078.61 230.33 2077.41C238.756 2076.18 245.34 2072.09 249.93 2065.75C254.391 2059.6 256.717 2051.68 257.593 2042.99C259.34 2025.67 255.501 2003.4 248.301 1980.24C241.06 1956.95 230.248 1932.21 217.556 1909.73L207.107 1915.64ZM24.3594 777.219L24.3594 6.05725L12.3594 6.05725L12.3594 777.219L24.3594 777.219ZM43.1123 2438.54C45.5605 2559.34 50.7936 2640.35 58.2337 2691.81C61.9474 2717.5 66.2562 2736.16 71.198 2748.83C73.6689 2755.16 76.4074 2760.29 79.5254 2764.08C82.666 2767.91 86.4547 2770.69 90.9781 2771.6C100.062 2773.44 108.062 2767.19 114.378 2759.9C121.068 2752.17 127.853 2740.98 134.657 2728C148.279 2702 162.837 2667.08 177.421 2634.35C192.157 2601.28 206.861 2570.59 220.99 2551.92C228.145 2542.47 234.437 2537.09 239.68 2535.35C242.108 2534.54 244.259 2534.53 246.34 2535.23C248.503 2535.95 251.04 2537.59 253.873 2540.82C259.655 2547.41 265.76 2559.59 271.773 2579.47C277.74 2599.19 283.448 2625.89 288.785 2660.97C299.459 2731.12 308.567 2834.2 315.458 2980.7L327.445 2980.14C320.547 2833.48 311.415 2729.93 300.649 2659.17C295.267 2623.79 289.455 2596.47 283.258 2575.99C277.108 2555.66 270.406 2541.47 262.894 2532.9C259.08 2528.55 254.849 2525.42 250.14 2523.85C245.35 2522.25 240.528 2522.42 235.901 2523.96C227.032 2526.9 218.883 2534.82 211.421 2544.68C196.32 2564.64 181.095 2596.63 166.46 2629.47C151.672 2662.66 137.414 2696.88 124.028 2722.43C117.328 2735.22 111.06 2745.4 105.307 2752.04C99.1785 2759.12 95.3436 2760.24 93.3571 2759.84C92.3454 2759.63 90.7901 2758.89 88.7976 2756.47C86.7824 2754.01 84.5985 2750.16 82.3774 2744.47C77.9351 2733.08 73.7813 2715.48 70.1103 2690.09C62.7809 2639.4 57.5561 2559 55.1098 2438.3L43.1123 2438.54ZM292.026 3504.33C283.335 3531.42 278.355 3552.98 276.163 3569.65C273.993 3586.16 274.468 3598.5 277.271 3606.77C278.689 3610.96 280.867 3614.59 284.092 3616.99C287.474 3619.51 291.429 3620.23 295.328 3619.53C302.522 3618.23 309.3 3612.18 314.88 3604.55C337.709 3573.3 355.006 3495.57 302.717 3417.89L292.762 3424.6C342.228 3498.08 325.041 3570.3 305.19 3597.47C300.1 3604.44 295.695 3607.27 293.196 3607.72C292.248 3607.89 291.728 3607.71 291.257 3607.36C290.629 3606.9 289.577 3605.7 288.636 3602.92C286.722 3597.27 285.969 3587.13 288.061 3571.22C290.131 3555.47 294.902 3534.65 303.453 3507.99L292.026 3504.33ZM82.2715 3465.27C68.8986 3612.97 89.2664 3867.72 130.784 4071.48C151.531 4173.31 177.677 4263.01 207.841 4320.38C222.86 4348.95 239.324 4370.39 257.381 4380.88C266.55 4386.2 276.243 4388.77 286.302 4387.85C296.327 4386.93 306.178 4382.6 315.787 4375.06L308.379 4365.62C300.147 4372.08 292.43 4375.23 285.209 4375.9C278.022 4376.55 270.792 4374.79 263.408 4370.5C248.358 4361.76 233.199 4342.82 218.463 4314.8C189.12 4258.99 163.238 4170.66 142.542 4069.09C101.172 3866.05 80.9877 3612.53 94.2226 3466.35L82.2715 3465.27Z" fill="#2368D0"/>
</g>
<defs>
<filter id="filter0_f_170_2" x="0" y="-5.16144" width="341" height="4542.16" filterUnits="userSpaceOnUse" color-interpolation-filters="sRGB">
<feFlood flood-opacity="0" result="BackgroundImageFix"/>
<feBlend mode="normal" in="SourceGraphic" in2="BackgroundImageFix" result="shape"/>
<feGaussianBlur stdDeviation="2" result="effect1_foregroundBlur_170_2"/>
</filter>
</defs>
</svg>
