<svg width="1272" height="5629" viewBox="0 0 1272 5629" fill="none" xmlns="http://www.w3.org/2000/svg">
<g opacity="0.4" filter="url(#filter0_f_160_55)">
<path d="M13 977.271L4 977.271L4 977.511L4.01281 977.751L13 977.271ZM214.05 1265.74L212.487 1274.61L212.787 1274.66L213.089 1274.69L214.05 1265.74ZM660.288 1224.84L657.796 1216.19L660.288 1224.84ZM957.638 1184.34L953.583 1192.37L957.638 1184.34ZM396.728 1511.18L387.802 1510.02L396.728 1511.18ZM288.452 2133.08L289.395 2142.03L288.452 2133.08ZM134.203 3082.47L143.185 3081.9L134.203 3082.47ZM1207.59 3769.32L1216.5 3768.02L1207.59 3769.32ZM1114.14 4435.58L1120.51 4441.93L1114.14 4435.58ZM1114.14 4327.97L1118.01 4319.85L1114.14 4327.97ZM288.452 4384.44L279.807 4381.94L288.452 4384.44ZM291.286 5431.53C287.919 5435.19 288.154 5440.88 291.81 5444.25C295.467 5447.62 301.161 5447.38 304.528 5443.72L291.286 5431.53ZM22 -1.75927e-10C22 -4.97056 17.9706 -9 13 -9C8.02944 -9 4 -4.97056 4 1.75927e-10L22 -1.75927e-10ZM4.01281 977.751C10.423 1097.79 25.3735 1166.49 58.3974 1207.95C91.83 1249.93 142.381 1262.25 212.487 1274.61L215.612 1256.88C144.645 1244.37 101.092 1232.67 72.4778 1196.74C43.4552 1160.3 28.4172 1097.2 21.9872 976.791L4.01281 977.751ZM213.089 1274.69C276.006 1281.44 378.13 1274.07 469.024 1263.68C559.873 1253.3 641.255 1239.69 662.78 1233.49L657.796 1216.19C637.929 1221.92 557.998 1235.39 466.98 1245.8C376.006 1256.19 275.708 1263.31 215.01 1256.79L213.089 1274.69ZM662.78 1233.49C723.633 1215.95 780.389 1197.51 830.682 1187.58C881.13 1177.62 922.667 1176.77 953.583 1192.37L961.693 1176.3C925.076 1157.82 878.338 1159.82 827.194 1169.92C775.894 1180.05 717.742 1198.91 657.796 1216.19L662.78 1233.49ZM953.583 1192.37C976.489 1203.93 995.713 1227.22 1009.89 1256.89C1024.01 1286.44 1032.68 1321.43 1035.04 1354.96C1037.4 1388.62 1033.35 1419.94 1022.89 1442.54C1012.57 1464.8 996.616 1477.72 974.413 1478.02L974.653 1496.02C1005.67 1495.61 1026.88 1476.73 1039.22 1450.1C1051.4 1423.8 1055.48 1389.14 1052.99 1353.7C1050.49 1318.14 1041.32 1280.91 1026.13 1249.13C1011.01 1217.48 989.472 1190.32 961.693 1176.3L953.583 1192.37ZM974.413 1478.02C962.119 1478.18 944.319 1475.7 921.958 1471.31C899.75 1466.95 873.699 1460.86 845.121 1454.09C788.122 1440.59 721.303 1424.43 656.938 1414.61C592.783 1404.82 529.876 1401.11 480.974 1413.22C456.397 1419.32 434.831 1429.53 418.463 1445.46C401.978 1461.51 391.325 1482.83 387.802 1510.02L405.653 1512.33C408.706 1488.77 417.715 1471.32 431.02 1458.36C444.442 1445.29 462.794 1436.27 485.304 1430.7C530.576 1419.48 590.518 1422.68 654.222 1432.4C717.716 1442.09 783.764 1458.05 840.972 1471.6C869.497 1478.36 895.885 1484.54 918.492 1488.97C940.946 1493.38 960.337 1496.21 974.653 1496.02L974.413 1478.02ZM1198.69 3770.63C1247.1 4101.57 1248.76 4287.9 1107.76 4429.22L1120.51 4441.93C1268.68 4293.41 1264.73 4097.73 1216.5 3768.02L1198.69 3770.63ZM1118.01 4319.85C1063.43 4293.78 883.095 4213.93 702.428 4187.6C612.132 4174.43 520.787 4174.48 444.783 4202.1C368.24 4229.9 307.718 4285.54 279.807 4381.94L297.097 4386.95C323.323 4296.37 379.492 4244.97 450.929 4219.02C522.905 4192.87 610.83 4192.43 699.831 4205.41C877.759 4231.34 1056.12 4310.24 1110.26 4336.09L1118.01 4319.85ZM597.036 2577.61C481.286 2552.59 392.336 2555.36 324.323 2578.38C256.071 2601.48 209.657 2644.73 178.768 2699.04C117.471 2806.82 117.354 2958.22 125.221 3083.03L143.185 3081.9C135.296 2956.74 136.086 2810.5 194.415 2707.94C223.338 2657.08 266.417 2616.98 330.094 2595.43C394.01 2573.8 479.426 2570.61 593.234 2595.2L597.036 2577.61ZM287.508 2124.13C239.475 2129.19 206.864 2135.74 187.645 2143.98C178.19 2148.03 170.399 2153.14 166.379 2160.12C161.772 2168.13 163.216 2176.44 167.64 2183.42C171.76 2189.92 178.751 2195.93 187.108 2201.54C195.627 2207.27 206.334 2213.08 218.706 2218.98C243.458 2230.78 275.675 2243.27 312.159 2256.22C384.992 2282.09 476.448 2310.35 561.133 2338.86C646.314 2367.54 724.676 2396.49 773.058 2424.04L781.965 2408.39C731.836 2379.85 651.834 2350.41 566.876 2321.8C481.421 2293.03 390.963 2265.11 318.182 2239.26C281.86 2226.36 250.346 2214.12 226.451 2202.73C214.501 2197.04 204.656 2191.65 197.146 2186.6C189.474 2181.45 184.958 2177.12 182.845 2173.79C181.036 2170.93 181.521 2169.9 181.979 2169.1C183.025 2167.29 186.324 2164.13 194.736 2160.53C211.25 2153.45 241.477 2147.08 289.395 2142.03L287.508 2124.13ZM387.802 1510.02C340.905 1871.95 426.468 2082.24 554.983 2195.54C683.139 2308.53 851.851 2323.1 967.504 2298.18C1024.96 2285.81 1071.36 2263.24 1092.7 2236.18C1103.63 2222.31 1108.6 2206.34 1103.45 2190.03C1098.46 2174.19 1084.6 2160.26 1063.1 2148.46C1020.13 2124.86 941.319 2106.82 816.498 2100.54C691.325 2094.25 518.797 2099.75 287.508 2124.13L289.395 2142.03C520.124 2117.71 691.659 2112.29 815.594 2118.52C939.88 2124.77 1015.22 2142.71 1054.44 2164.24C1074.04 2175 1083.29 2185.92 1086.29 2195.44C1089.14 2204.47 1086.98 2214.35 1078.56 2225.04C1061.17 2247.09 1019.9 2268.48 963.713 2280.59C852.089 2304.64 689.689 2290.31 566.887 2182.04C444.445 2074.09 359.206 1870.79 405.653 1512.33L387.802 1510.02ZM773.058 2424.04C821.854 2451.82 863.006 2482.19 890.227 2510.34C903.853 2524.44 913.679 2537.66 919.332 2549.42C925.009 2561.23 926.058 2570.65 923.787 2577.89C921.585 2584.92 915.632 2591.86 902.898 2597.51C890.045 2603.21 871.056 2607.21 844.605 2608.45C791.755 2610.94 711.549 2602.35 597.036 2577.61L593.234 2595.2C708.28 2620.06 790.277 2629.03 845.45 2626.43C873.01 2625.14 894.487 2620.93 910.2 2613.96C926.034 2606.93 936.749 2596.71 940.963 2583.28C945.109 2570.05 942.322 2555.7 935.556 2541.63C928.768 2527.5 917.547 2512.7 903.167 2497.83C874.375 2468.05 831.679 2436.7 781.965 2408.39L773.058 2424.04ZM22 977.271L22 -1.75927e-10L4 1.75927e-10L4 977.271L22 977.271ZM125.221 3083.03C134.885 3236.35 155.57 3339.94 185.355 3406.18C215.32 3472.82 255.288 3503.1 303.32 3506.22C349.972 3509.26 401.742 3486.34 455.13 3453.58C508.736 3420.68 566.06 3376.48 623.582 3334.97C681.443 3293.22 739.709 3254.04 796.302 3230C852.864 3205.96 906.553 3197.56 955.921 3215.66C1005.26 3233.75 1052.39 3279.09 1094.09 3367.21C1135.79 3455.34 1171.57 3585.26 1198.69 3770.63L1216.5 3768.02C1189.27 3581.87 1153.16 3449.95 1110.36 3359.51C1067.56 3269.05 1017.57 3219.09 962.117 3198.76C906.694 3178.44 847.913 3188.51 789.263 3213.43C730.644 3238.33 670.954 3278.59 613.05 3320.37C554.808 3362.4 498.558 3405.81 445.715 3438.24C392.654 3470.8 345.101 3490.9 304.488 3488.26C265.256 3485.71 230.019 3461.62 201.772 3398.8C173.345 3335.58 152.812 3234.62 143.185 3081.9L125.221 3083.03ZM1107.76 4429.22C1073.48 4463.58 1053.28 4491.44 1044.21 4513.63C1035.08 4535.97 1036.59 4554.76 1049.66 4567.17C1061.71 4578.61 1081.07 4581.91 1100.95 4580.75C1121.3 4579.57 1144.39 4573.62 1166.22 4564.02C1188.06 4554.41 1209.13 4540.92 1225.18 4524.29C1241.23 4507.65 1252.7 4487.39 1254.09 4464.45C1256.89 4418.03 1218.66 4367.92 1118.01 4319.85L1110.26 4336.09C1210.14 4383.8 1238.19 4429.08 1236.12 4463.37C1235.07 4480.78 1226.31 4497.2 1212.23 4511.79C1198.15 4526.37 1179.19 4538.64 1158.97 4547.54C1138.75 4556.44 1117.76 4561.75 1099.91 4562.78C1081.57 4563.85 1068.6 4560.33 1062.05 4554.12C1056.54 4548.88 1053.21 4539.19 1060.87 4520.44C1068.6 4501.53 1086.83 4475.69 1120.51 4441.93L1107.76 4429.22ZM279.807 4381.94C254.276 4470.12 264.838 4556.87 288.788 4642.65C300.76 4685.52 316.13 4728.33 332.11 4771.05C348.132 4813.87 364.719 4856.47 379.364 4899.44C408.642 4985.34 429.668 5071.39 421.991 5159.31C414.34 5246.94 378.091 5337.25 291.286 5431.53L304.528 5443.72C393.747 5346.82 431.891 5252.86 439.923 5160.88C447.93 5069.18 425.932 4980.27 396.401 4893.63C381.642 4850.33 364.878 4807.26 348.969 4764.74C333.019 4722.11 317.878 4679.9 306.124 4637.8C282.622 4553.63 272.874 4470.61 297.097 4386.95L279.807 4381.94Z" fill="#FD0E0E"/>
<path d="M29.3755 970.714L20.3755 970.714L20.3755 970.954L20.3883 971.194L29.3755 970.714ZM228.936 1256.8L227.375 1265.67L227.674 1265.72L227.976 1265.75L228.936 1256.8ZM671.869 1216.24L669.378 1207.59L671.869 1216.24ZM967.016 1176.07L962.964 1184.11L967.016 1176.07ZM410.26 1500.21L401.335 1499.05L410.26 1500.21ZM302.787 2116.97L303.729 2125.92L302.787 2116.97ZM149.681 3058.52L158.663 3057.96L149.681 3058.52ZM1215.12 3739.71L1224.02 3738.41L1215.12 3739.71ZM1122.35 4400.46L1115.99 4394.1L1122.35 4400.46ZM1122.35 4293.74L1126.23 4285.62L1122.35 4293.74ZM302.787 4349.75L294.142 4347.25L302.787 4349.75ZM591.372 5616C591.372 5620.97 595.401 5625 600.372 5625C605.342 5625 609.372 5620.97 609.372 5616L591.372 5616ZM38.3755 1.5134C38.3755 -3.45717 34.3461 -7.4866 29.3755 -7.4866C24.4049 -7.4866 20.3755 -3.45717 20.3755 1.5134L38.3755 1.5134ZM20.3883 971.194C26.751 1090.24 41.5905 1158.39 74.3868 1199.54C107.59 1241.2 157.792 1253.41 227.375 1265.67L230.497 1247.94C160.051 1235.53 116.846 1223.93 88.4625 1188.32C59.6718 1152.2 44.745 1089.65 38.3627 970.233L20.3883 971.194ZM227.976 1265.75C290.434 1272.45 391.808 1265.13 482.028 1254.83C572.204 1244.53 652.987 1231.04 674.359 1224.88L669.378 1207.59C649.664 1213.26 570.33 1226.63 479.986 1236.95C389.686 1247.26 290.136 1254.31 229.895 1247.85L227.976 1265.75ZM674.359 1224.88C734.764 1207.49 791.095 1189.21 841.011 1179.36C891.084 1169.48 932.297 1168.64 962.964 1184.11L971.068 1168.03C934.702 1149.7 888.294 1151.68 837.526 1161.7C786.603 1171.75 728.877 1190.45 669.378 1207.59L674.359 1224.88ZM962.964 1184.11C985.682 1195.56 1004.75 1218.64 1018.82 1248.06C1032.83 1277.35 1041.43 1312.04 1043.77 1345.29C1046.12 1378.66 1042.1 1409.71 1031.72 1432.1C1021.49 1454.16 1005.68 1466.96 983.666 1467.25L983.906 1485.25C1014.72 1484.84 1035.8 1466.1 1048.05 1439.68C1060.15 1413.58 1064.2 1379.18 1061.73 1344.03C1059.25 1308.75 1050.14 1271.82 1035.06 1240.3C1020.04 1208.89 998.659 1181.95 971.068 1168.03L962.964 1184.11ZM983.666 1467.25C971.469 1467.42 953.806 1464.95 931.611 1460.6C909.569 1456.28 883.713 1450.24 855.346 1443.52C798.77 1430.13 732.443 1414.11 668.552 1404.37C604.871 1394.65 542.42 1390.97 493.868 1402.99C469.467 1409.04 448.049 1419.17 431.792 1434.99C415.416 1450.91 404.834 1472.07 401.335 1499.05L419.186 1501.37C422.214 1478.02 431.149 1460.72 444.343 1447.89C457.654 1434.94 475.859 1426 498.195 1420.47C543.119 1409.34 602.608 1412.52 665.839 1422.16C728.859 1431.77 794.416 1447.6 851.2 1461.04C879.514 1467.74 905.707 1473.86 928.148 1478.26C950.437 1482.63 969.689 1485.44 983.906 1485.25L983.666 1467.25ZM1206.21 3741.01C1254.27 4069.22 1255.91 4253.97 1115.99 4394.1L1128.72 4406.82C1275.83 4259.5 1271.89 4065.38 1224.02 3738.41L1206.21 3741.01ZM1126.23 4285.62C1072.05 4259.76 893.043 4180.57 713.705 4154.45C624.074 4141.4 533.394 4141.45 457.939 4168.84C381.946 4196.42 321.855 4251.62 294.142 4347.25L311.431 4352.26C337.456 4262.45 393.19 4211.49 464.081 4185.76C535.51 4159.83 622.772 4159.4 711.111 4172.26C887.711 4197.98 1064.75 4276.22 1118.48 4301.86L1126.23 4285.62ZM609.098 2557.76C494.198 2532.95 405.896 2535.7 338.373 2558.53C270.611 2581.44 224.528 2624.35 193.859 2678.23C133.003 2785.14 132.89 2935.31 140.699 3059.09L158.663 3057.96C150.832 2933.83 151.619 2788.82 209.503 2687.13C238.204 2636.71 280.95 2596.95 344.14 2575.58C407.569 2554.13 492.34 2550.97 605.299 2575.35L609.098 2557.76ZM301.844 2108.02C254.166 2113.04 221.789 2119.55 202.703 2127.72C193.316 2131.74 185.565 2136.81 181.562 2143.76C176.971 2151.73 178.413 2160 182.815 2166.95C186.914 2173.41 193.862 2179.37 202.16 2184.94C210.619 2190.62 221.25 2196.39 233.532 2202.24C258.104 2213.94 290.084 2226.33 326.299 2239.18C398.592 2264.82 489.374 2292.86 573.429 2321.13C657.98 2349.58 735.756 2378.28 783.773 2405.6L792.674 2389.95C742.91 2361.64 663.496 2332.44 579.168 2304.07C494.343 2275.54 404.559 2247.84 332.317 2222.21C296.265 2209.42 264.986 2197.28 241.272 2185.99C229.411 2180.34 219.642 2175 212.191 2169.99C204.578 2164.88 200.106 2160.6 198.017 2157.31C196.232 2154.49 196.723 2153.5 197.159 2152.74C198.185 2150.96 201.442 2147.84 209.789 2144.27C226.171 2137.25 256.166 2130.93 303.729 2125.92L301.844 2108.02ZM401.335 1499.05C354.783 1858.01 439.715 2066.6 567.303 2178.98C694.528 2291.05 862.012 2305.51 976.821 2280.79C1033.85 2268.51 1079.93 2246.13 1101.12 2219.28C1111.99 2205.51 1116.93 2189.64 1111.82 2173.43C1106.85 2157.7 1093.07 2143.87 1071.73 2132.16C1029.06 2108.76 950.822 2090.86 826.924 2084.63C702.675 2078.39 531.422 2083.85 301.844 2108.02L303.729 2125.92C532.747 2101.81 703.009 2096.43 826.021 2102.61C949.385 2108.81 1024.16 2126.6 1063.07 2147.95C1082.52 2158.61 1091.68 2169.44 1094.65 2178.85C1097.47 2187.77 1095.34 2197.54 1086.99 2208.13C1069.75 2229.98 1028.8 2251.19 973.033 2263.19C862.249 2287.04 701.073 2272.83 579.201 2165.48C457.69 2058.44 373.085 1856.85 419.186 1501.37L401.335 1499.05ZM783.773 2405.6C832.205 2433.15 873.046 2463.27 900.059 2491.18C913.581 2505.15 923.329 2518.26 928.935 2529.92C934.565 2541.62 935.598 2550.94 933.353 2558.09C931.176 2565.03 925.287 2571.9 912.657 2577.5C899.909 2583.15 881.069 2587.12 854.817 2588.35C802.367 2590.81 722.76 2582.3 609.098 2557.76L605.299 2575.35C719.494 2600.01 800.89 2608.9 855.662 2606.33C883.021 2605.04 904.347 2600.88 919.954 2593.96C935.68 2586.98 946.336 2576.84 950.527 2563.48C954.651 2550.34 951.876 2536.09 945.157 2522.11C938.414 2508.09 927.27 2493.41 912.994 2478.66C884.409 2449.12 842.024 2418.03 792.674 2389.95L783.773 2405.6ZM38.3755 970.714L38.3755 1.5134L20.3755 1.5134L20.3755 970.714L38.3755 970.714ZM140.699 3059.09C150.292 3211.14 170.824 3313.89 200.394 3379.6C230.145 3445.71 269.836 3475.76 317.541 3478.86C363.868 3481.87 415.268 3459.13 468.262 3426.64C521.474 3394.01 578.377 3350.17 635.471 3309C692.903 3267.6 750.732 3228.75 806.898 3204.9C863.034 3181.07 916.309 3172.75 965.291 3190.69C1014.25 3208.62 1061.01 3253.57 1102.4 3340.95C1143.79 3428.34 1179.3 3557.18 1206.21 3741.01L1224.02 3738.41C1196.99 3553.79 1161.15 3422.95 1118.66 3333.24C1076.17 3243.53 1026.54 3193.96 971.482 3173.79C916.449 3153.63 858.088 3163.62 799.865 3188.33C741.672 3213.04 682.42 3252.97 624.944 3294.4C567.131 3336.08 511.302 3379.13 458.854 3411.29C406.187 3443.58 359 3463.51 318.708 3460.89C279.796 3458.36 244.838 3434.49 216.809 3372.21C188.598 3309.53 168.218 3209.41 158.663 3057.96L140.699 3059.09ZM1115.99 4394.1C1081.96 4428.18 1061.9 4455.82 1052.89 4477.84C1043.82 4500.01 1045.31 4518.68 1058.32 4531.02C1070.29 4542.39 1089.54 4545.66 1109.27 4544.51C1129.48 4543.34 1152.4 4537.44 1174.08 4527.91C1195.76 4518.37 1216.68 4505 1232.62 4488.49C1248.56 4471.99 1259.96 4451.88 1261.33 4429.1C1264.12 4383.01 1226.12 4333.29 1126.23 4285.62L1118.48 4301.86C1217.62 4349.18 1245.42 4394.07 1243.37 4428.02C1242.33 4445.26 1233.64 4461.53 1219.68 4475.99C1205.71 4490.44 1186.89 4502.61 1166.83 4511.43C1146.77 4520.25 1125.94 4525.51 1108.23 4526.54C1090.04 4527.6 1077.18 4524.1 1070.7 4517.96C1065.26 4512.8 1061.95 4503.23 1069.55 4484.65C1077.21 4465.92 1095.3 4440.29 1128.72 4406.82L1115.99 4394.1ZM294.142 4347.25C243.661 4521.44 319.993 4685.99 406.308 4881.3C493 5077.47 591.372 5307.33 591.372 5616L609.372 5616C609.372 5303.27 509.565 5070.43 422.772 4874.03C335.602 4676.78 263.141 4518.89 311.431 4352.26L294.142 4347.25Z" fill="#FB5A14"/>
<path d="M45.4224 959.207L36.4224 959.207L36.4224 959.448L36.4353 959.688L45.4224 959.207ZM243.266 1241.9L241.71 1250.76L242.008 1250.82L242.31 1250.85L243.266 1241.9ZM682.389 1201.81L679.906 1193.16L682.389 1201.81ZM974.997 1162.12L970.956 1170.17L974.997 1162.12ZM423.031 1482.42L414.106 1481.26L423.031 1482.42ZM316.482 2091.86L317.421 2100.81L316.482 2091.86ZM164.693 3022.23L155.711 3022.8L164.693 3022.23ZM1220.97 3695.33L1212.06 3696.64L1220.97 3695.33ZM1129 4348.23L1135.36 4354.6L1129 4348.23ZM1129 4242.78L1132.87 4234.65L1129 4242.78ZM316.482 4298.12L325.142 4300.57L316.482 4298.12ZM1162.82 5143.74C1167.64 5142.53 1170.57 5137.64 1169.35 5132.82C1168.14 5128 1163.25 5125.07 1158.43 5126.28L1162.82 5143.74ZM54.4224 1.5134C54.4224 -3.45717 50.3929 -7.4866 45.4224 -7.4866C40.4518 -7.4866 36.4224 -3.45717 36.4224 1.5134L54.4224 1.5134ZM36.4353 959.688C42.7432 1077.32 57.4553 1144.71 89.995 1185.39C122.936 1226.58 172.734 1238.66 241.71 1250.76L244.822 1233.04C174.975 1220.77 132.169 1209.31 104.053 1174.15C75.5351 1138.49 60.7369 1076.72 54.4095 958.725L36.4353 959.688ZM242.31 1250.85C304.236 1257.47 404.742 1250.24 494.187 1240.06C583.586 1229.88 663.679 1216.55 684.871 1210.46L679.906 1193.16C660.366 1198.77 581.719 1211.98 492.151 1222.17C402.628 1232.36 303.939 1239.33 244.222 1232.95L242.31 1250.85ZM684.871 1210.46C744.759 1193.28 800.602 1175.21 850.086 1165.48C899.726 1155.72 940.57 1154.9 970.956 1170.17L979.038 1154.08C942.968 1135.96 896.944 1137.92 846.612 1147.82C796.124 1157.75 738.89 1176.23 679.906 1193.16L684.871 1210.46ZM970.956 1170.17C993.459 1181.48 1012.35 1204.27 1026.29 1233.32C1040.17 1262.25 1048.7 1296.51 1051.02 1329.35C1053.34 1362.31 1049.36 1392.97 1039.08 1415.06C1028.96 1436.83 1013.3 1449.45 991.503 1449.74L991.742 1467.74C1022.31 1467.34 1043.24 1448.81 1055.4 1422.66C1067.41 1396.84 1071.43 1362.83 1068.97 1328.08C1066.51 1293.2 1057.48 1256.7 1042.52 1225.53C1027.63 1194.49 1006.41 1167.84 979.038 1154.08L970.956 1170.17ZM991.503 1449.74C979.417 1449.91 961.91 1447.47 939.906 1443.17C918.055 1438.9 892.422 1432.93 864.299 1426.3C808.21 1413.06 742.452 1397.23 679.108 1387.6C615.973 1378.01 554.052 1374.37 505.908 1386.25C481.711 1392.22 460.465 1402.24 444.333 1417.88C428.082 1433.64 417.579 1454.57 414.106 1481.26L431.956 1483.58C434.954 1460.53 443.8 1443.47 456.863 1430.8C470.046 1418.02 488.081 1409.19 510.221 1403.73C554.749 1392.74 613.718 1395.87 676.403 1405.4C738.879 1414.89 803.87 1430.53 860.166 1443.81C888.236 1450.44 914.205 1456.49 936.454 1460.83C958.551 1465.15 977.643 1467.93 991.742 1467.74L991.503 1449.74ZM1212.06 3696.64C1259.7 4020.95 1261.32 4203.44 1122.64 4341.86L1135.36 4354.6C1281.24 4208.98 1277.33 4017.11 1229.87 3694.02L1212.06 3696.64ZM1132.87 4234.65C1079.14 4209.1 900.979 4130.71 722.834 4104.83C633.803 4091.9 543.801 4091.92 469.106 4119.02C393.862 4146.32 334.599 4200.97 307.821 4295.68L325.142 4300.57C350.254 4211.76 405.128 4161.38 475.245 4135.94C545.911 4110.31 632.493 4109.9 720.246 4122.64C895.67 4148.13 1071.87 4225.57 1125.13 4250.91L1132.87 4234.65ZM620.168 2527.3C506.252 2502.79 418.699 2505.5 351.746 2528.07C284.552 2550.71 238.848 2593.12 208.43 2646.38C148.077 2752.06 147.969 2900.49 155.711 3022.8L173.675 3021.66C165.911 2899 166.696 2755.76 224.061 2655.31C252.502 2605.51 294.864 2566.23 357.495 2545.12C420.367 2523.93 504.399 2520.8 616.381 2544.9L620.168 2527.3ZM315.542 2082.91C268.274 2087.87 236.169 2094.29 217.238 2102.37C207.931 2106.35 200.224 2111.36 196.239 2118.26C191.657 2126.19 193.103 2134.42 197.484 2141.3C201.559 2147.71 208.461 2153.61 216.688 2159.11C225.079 2164.73 235.622 2170.43 247.8 2176.21C272.163 2187.78 303.871 2200.02 339.774 2212.71C411.445 2238.06 501.451 2265.76 584.779 2293.7C668.604 2321.8 745.706 2350.16 793.303 2377.15L802.182 2361.49C752.84 2333.52 674.103 2304.66 590.502 2276.63C506.404 2248.43 417.395 2221.07 345.775 2195.74C310.033 2183.1 279.026 2171.11 255.519 2159.95C243.761 2154.37 234.08 2149.09 226.697 2144.15C219.151 2139.1 214.73 2134.88 212.671 2131.64C210.919 2128.89 211.42 2127.96 211.823 2127.27C212.823 2125.54 216.029 2122.46 224.305 2118.93C240.537 2112 270.267 2105.76 317.421 2100.81L315.542 2082.91ZM414.106 1481.26C367.951 1835.99 452.158 2042.14 578.682 2153.22C704.836 2263.98 870.899 2278.26 984.728 2253.84C1041.27 2241.7 1086.97 2219.59 1108 2193.02C1118.79 2179.4 1123.71 2163.68 1118.62 2147.6C1113.69 2132.01 1100 2118.34 1078.84 2106.77C1036.52 2083.63 958.946 2065.95 836.113 2059.8C712.929 2053.63 543.146 2059.02 315.542 2082.91L317.421 2100.81C544.468 2076.98 713.262 2071.67 835.213 2077.77C957.514 2083.9 1031.63 2101.47 1070.2 2122.56C1089.48 2133.1 1098.53 2143.78 1101.46 2153.04C1104.24 2161.8 1102.15 2171.41 1093.89 2181.85C1076.81 2203.42 1036.24 2224.37 980.952 2236.24C871.13 2259.8 711.36 2245.75 590.558 2139.69C470.126 2033.96 386.255 1834.81 431.956 1483.58L414.106 1481.26ZM793.303 2377.15C841.315 2404.38 881.798 2434.13 908.571 2461.71C921.973 2475.51 931.628 2488.45 937.179 2499.95C942.753 2511.51 943.764 2520.67 941.552 2527.7C939.408 2534.51 933.598 2541.28 921.085 2546.81C908.455 2552.4 889.785 2556.31 863.761 2557.53C811.768 2559.97 732.851 2551.55 620.168 2527.3L616.381 2544.9C729.596 2569.26 810.296 2578.05 864.603 2575.51C891.73 2574.24 912.88 2570.12 928.362 2563.28C943.96 2556.38 954.552 2546.34 958.722 2533.1C962.824 2520.07 960.06 2505.95 953.391 2492.13C946.698 2478.26 935.642 2463.75 921.485 2449.17C893.138 2419.97 851.11 2389.24 802.182 2361.49L793.303 2377.15ZM54.4224 959.207L54.4224 1.5134L36.4224 1.5134L36.4224 959.207L54.4224 959.207ZM155.711 3022.8C165.221 3173.05 185.579 3274.6 214.904 3339.54C244.414 3404.9 283.788 3434.61 331.106 3437.68C377.05 3440.65 428.021 3418.18 480.563 3386.07C533.32 3353.83 589.738 3310.5 646.338 3269.83C703.275 3228.92 760.601 3190.53 816.277 3166.97C871.923 3143.43 924.726 3135.21 973.27 3152.93C1021.78 3170.64 1068.13 3215.03 1109.15 3301.35C1150.17 3387.69 1185.38 3514.99 1212.06 3696.64L1229.87 3694.02C1203.07 3511.59 1167.53 3382.28 1125.41 3293.63C1083.27 3204.96 1034.05 3155.96 979.443 3136.02C924.866 3116.1 866.993 3125.97 809.263 3150.4C751.564 3174.81 692.816 3214.27 635.834 3255.21C578.516 3296.4 523.171 3338.94 471.177 3370.71C418.967 3402.62 372.198 3422.3 332.269 3419.71C293.715 3417.22 259.083 3393.65 231.309 3332.14C203.351 3270.22 183.147 3171.31 173.675 3021.66L155.711 3022.8ZM1122.64 4341.86C1088.9 4375.54 1069 4402.86 1060.06 4424.64C1051.06 4446.58 1052.52 4465.1 1065.47 4477.33C1077.37 4488.58 1096.47 4491.81 1116.03 4490.68C1136.07 4489.52 1158.8 4483.69 1180.3 4474.27C1201.8 4464.85 1222.55 4451.62 1238.36 4435.3C1254.18 4418.99 1265.49 4399.09 1266.86 4376.54C1269.63 4330.91 1231.89 4281.75 1132.87 4234.65L1125.13 4250.91C1223.44 4297.67 1250.92 4342 1248.89 4375.45C1247.86 4392.45 1239.28 4408.5 1225.44 4422.78C1211.6 4437.05 1192.96 4449.07 1173.07 4457.78C1153.19 4466.5 1132.55 4471.7 1114.99 4472.71C1096.96 4473.75 1084.23 4470.3 1077.83 4464.25C1072.48 4459.19 1069.19 4449.81 1076.71 4431.48C1084.3 4412.98 1102.22 4387.67 1135.36 4354.6L1122.64 4341.86ZM307.821 4295.68C255.168 4481.89 329.365 4728.92 485.42 4911.44C641.823 5094.38 881.959 5214.31 1162.82 5143.74L1158.43 5126.28C885.709 5194.81 652.174 5078.79 499.101 4899.75C345.68 4720.3 274.597 4479.33 325.142 4300.57L307.821 4295.68Z" fill="#2368D0"/>
</g>
<defs>
<filter id="filter0_f_160_55" x="0" y="-13" width="1271" height="5642" filterUnits="userSpaceOnUse" color-interpolation-filters="sRGB">
<feFlood flood-opacity="0" result="BackgroundImageFix"/>
<feBlend mode="normal" in="SourceGraphic" in2="BackgroundImageFix" result="shape"/>
<feGaussianBlur stdDeviation="2" result="effect1_foregroundBlur_160_55"/>
</filter>
</defs>
</svg>
